SplineFontDB: 3.0
FontName: AzarMehrMonolineSerifBold
FullName: AzarMehr Monoline Serif Bold
FamilyName: AzarMehrMonoline
Weight: Bold
Copyright: Copyright (c) 2018, opentypeshop (opentypeshop.com),\nwith Reserved Font Name AzarMehrMonoline.\nThis Font Software is licensed under the SIL Open Font License, Version 1.1.
Version: 1.00
ItalicAngle: 0
UnderlinePosition: 0
UnderlineWidth: 0
Ascent: 1638
Descent: 410
InvalidEm: 0
sfntRevision: 0x00010003
LayerCount: 2
Layer: 0 0 "Back" 1
Layer: 1 0 "Fore" 0
PreferredKerning: 4
XUID: [1021 89 1101065813 17353]
StyleMap: 0x0040
FSType: 0
OS2Version: 4
OS2_WeightWidthSlopeOnly: 0
OS2_UseTypoMetrics: 1
CreationTime: 1497005464
ModificationTime: 1527574720
PfmFamily: 33
TTFWeight: 1
TTFWidth: 5
LineGap: 0
VLineGap: 0
OS2TypoAscent: 994
OS2TypoAOffset: 1
OS2TypoDescent: -813
OS2TypoDOffset: 1
OS2TypoLinegap: 0
OS2WinAscent: 90
OS2WinAOffset: 1
OS2WinDescent: 90
OS2WinDOffset: 1
HheadAscent: 90
HheadAOffset: 1
HheadDescent: -90
HheadDOffset: 1
OS2CapHeight: 1400
OS2XHeight: 1012
OS2Vendor: 'aa68'
Lookup: 4 1 0 "'ccmp' Glyph Composition/Decomposition in Arabic lookup 0" { "'ccmp' Glyph Composition/Decomposition in Arabic lookup 0 subtable 0"  } ['ccmp' ('arab' <'FAR ' 'dflt' > ) ]
Lookup: 1 9 0 "'fina' Terminal Forms in Arabic lookup 1" { "'fina' Terminal Forms in Arabic lookup 1 subtable"  } ['fina' ('arab' <'FAR ' 'dflt' > ) ]
Lookup: 1 9 0 "'medi' Medial Forms in Arabic lookup 2" { "'medi' Medial Forms in Arabic lookup 2 subtable"  } ['medi' ('arab' <'FAR ' 'dflt' > ) ]
Lookup: 1 9 0 "'init' Initial Forms in Arabic lookup 3" { "'init' Initial Forms in Arabic lookup 3 subtable"  } ['init' ('arab' <'FAR ' 'dflt' > ) ]
Lookup: 4 9 1 "'liga' Standard Ligatures in Arabic lookup 4" { "'liga' Standard Ligatures in Arabic lookup 4 subtable"  } ['liga' ('arab' <'FAR ' 'dflt' > ) ]
Lookup: 260 1 0 "'mark' Mark Positioning in Arabic lookup 0" { "'mark' Mark Positioning in Arabic lookup 0 subtable"  } ['mark' ('arab' <'FAR ' 'dflt' > ) ]

StartChar: a
Encoding: 97 97 0
GlifName: a
Width: 1086
VWidth: 1494
Flags: HMW
LayerCount: 2
Fore
SplineSet
721 423 m 1
 668 474 564 507 465 507 c 0
 325 507 226 435 226 298 c 0
 226 178 304 116 471 116 c 0
 586 116 668 175 703 256 c 0
 715 283 721 313 721 342 c 2
 721 423 l 1
871 659 m 2
 871 116 l 1
 961 116 l 1
 961 -16 l 1
 721 -16 l 1
 721 101 l 1
 653 12 568 -16 438 -16 c 0
 249 -16 76 95 76 298 c 0
 76 510 253 639 465 639 c 0
 560 639 650 609 721 549 c 1
 721 659 l 2
 721 776 612 868 466 868 c 0
 393 868 311 845 229 783 c 2
 213 771 l 1
 107 865 l 1
 131 883 l 2
 237 963 354 1000 466 1000 c 0
 685 1000 871 856 871 659 c 2
EndSplineSet
Colour: ffff
EndChar

StartChar: c
Encoding: 99 99 1
GlifName: c
Width: 1086
VWidth: 1494
Flags: HMW
LayerCount: 2
Fore
SplineSet
1011 609 m 1
 861 609 l 1
 861 760 l 1
 811 825 734 868 580 868 c 0
 299 868 225 708 225 492 c 0
 225 276 299 116 580 116 c 0
 744 116 822 166 871 237 c 2
 883 254 l 1
 1017 193 l 1
 1001 169 l 2
 924 56 785 -16 580 -16 c 0
 187 -16 75 249 75 492 c 0
 75 735 187 1000 580 1000 c 0
 695 1000 788 977 861 938 c 1
 861 1009 l 1
 1011 1009 l 1
 1011 609 l 1
EndSplineSet
Colour: ffff
EndChar

StartChar: e
Encoding: 101 101 2
GlifName: e
Width: 1086
VWidth: 1494
Flags: HMW
LayerCount: 2
Fore
SplineSet
228 558 m 1
 858 558 l 1
 842 743 763 868 543 868 c 0
 323 868 244 742 228 558 c 1
228 426 m 1
 245 241 323 116 557 116 c 0
 714.204028476 116 797.964035839 169.318609828 863 239 c 1
 986 162 l 1
 888.72135598 60.0890395978 763.60266899 -16 557 -16 c 0
 180 -16 75 252 75 492 c 0
 75 731 178 1000 543 1000 c 0
 908 1000 1011 731 1011 492 c 0
 1011 470 1011 448 1011 426 c 1
 750 426 489 426 228 426 c 1
EndSplineSet
Colour: ffff
EndChar

StartChar: f
Encoding: 102 102 3
GlifName: f
Width: 1086
VWidth: 1494
Flags: HMW
LayerCount: 2
Fore
SplineSet
671 1227 m 0
 609 1227 580 1215 564 1196 c 0
 548 1176 540 1139 540 1075 c 2
 540 980 l 1
 911 980 l 1
 911 868 l 1
 540 868 l 1
 540 116 l 1
 911 116 l 1
 911 -16 l 1
 175 -16 l 1
 175 116 l 1
 390 116 l 1
 390 868 l 1
 175 868 l 1
 175 980 l 1
 390 980 l 1
 390 1055 l 2
 390 1130 397 1201 451 1261 c 0
 507 1323 591 1339 671 1339 c 0
 911 1339 l 1
 911 1227 l 1
 671 1227 l 0
EndSplineSet
Colour: ffff
EndChar

StartChar: g
Encoding: 103 103 4
GlifName: g
Width: 1086
VWidth: 1494
Flags: HW
LayerCount: 2
Fore
SplineSet
259 -51 m 1
 242 -70 225 -105 225 -144 c 0
 225 -220 354 -259 534 -259 c 0
 714 -259 861 -215 861 -150 c 0
 861 -96 774 -66 634 -66 c 2
 413 -66 l 2
 372 -66 315 -66 259 -51 c 1
315 629 m 0
 315 480 358 391 525 391 c 0
 692 391 735 480 735 629 c 0
 735 778 692 868 525 868 c 0
 358 868 315 778 315 629 c 0
165 629 m 0
 165 801 243 1000 525 1000 c 0
 635 1000 717 969 773 920 c 1
 814 947 855 971 900 993 c 2
 919 1002 l 1
 998 888 l 1
 972 875 l 2
 930 855 891 833 852 807 c 1
 876 749 885 689 885 629 c 0
 885 457 807 259 525 259 c 0
 439 259 369 278 317 309 c 1
 268 253 255 210 255 151 c 0
 255 66 302 66 413 66 c 2
 634 66 l 2
 746 66 1011 52 1011 -150 c 0
 1011 -376 675 -391 534 -391 c 0
 384 -391 75 -371 75 -144 c 0
 75 -78 99 -15 139 30 c 1
 116 65 105 105 105 151 c 0
 105 246 142 328 218 409 c 1
 178 476 165 554 165 629 c 0
EndSplineSet
Colour: ffff
EndChar

StartChar: o
Encoding: 111 111 5
GlifName: o
Width: 1086
VWidth: 1494
Flags: HMW
LayerCount: 2
Fore
SplineSet
861 492 m 0
 861 711 780 868 543 868 c 0
 306 868 225 711 225 492 c 0
 225 273 306 116 543 116 c 0
 780 116 861 273 861 492 c 0
1011 492 m 0
 1011 253 902 -16 543 -16 c 0
 184 -16 75 253 75 492 c 0
 75 731 184 1000 543 1000 c 0
 902 1000 1011 731 1011 492 c 0
EndSplineSet
Colour: ffff
EndChar

StartChar: s
Encoding: 115 115 6
GlifName: s
Width: 1086
VWidth: 1494
Flags: HMW
LayerCount: 2
Fore
SplineSet
961 659 m 1
 811 659 l 1
 811 763 l 1
 756 830 649 878 507 878 c 0
 350 878 225 817 225 720 c 0
 225 619 343 595 542 576 c 0
 713.273430247 559.647260429 1011 529 1011 278 c 0
 1011 52 766 -16 568 -16 c 0
 448 -16 322 24 225 80 c 1
 225 -25 l 1
 75 -25 l 1
 75 325 l 1
 225 325 l 1
 225 233 l 1
 290 174 432 106 568 106 c 0
 750 106 861 169 861 278 c 0
 861 401 726.539415064 426.432197479 522 444 c 0
 359 458 75 487 75 720 c 0
 75 937 335 1000 494 1000 c 0
 647 1000 737 958 811 900 c 1
 811 1009 l 1
 961 1009 l 1
 961 659 l 1
EndSplineSet
Colour: ffff
EndChar

StartChar: t
Encoding: 116 116 7
GlifName: t
Width: 1086
VWidth: 1494
Flags: HMW
LayerCount: 2
Fore
SplineSet
420 1348 m 1
 570 1348 l 1
 570 1000 l 1
 911 1000 l 1
 911 868 l 1
 570 868 l 1
 570 267 l 2
 570 137 596 116 701 116 c 0
 911 116 l 1
 911 -16 l 1
 701 -16 l 0
 506 -16 420 98 420 267 c 2
 420 868 l 1
 175 868 l 1
 175 1000 l 1
 420 1000 l 1
 420 1348 l 1
EndSplineSet
Colour: ffff
EndChar

StartChar: v
Encoding: 118 118 8
GlifName: v
Width: 1086
VWidth: 1494
Flags: HMW
LayerCount: 2
Fore
SplineSet
75 868 m 1
 75 1000 l 1
 425 1000 l 1
 425 868 l 1
 349 868 l 1
 543 276 l 1
 737 868 l 1
 661 868 l 1
 661 1000 l 1
 1011 1000 l 1
 1011 868 l 1
 892 868 l 1
 603 -16 l 1
 483 -16 l 1
 194 868 l 1
 75 868 l 1
EndSplineSet
Colour: ffff
EndChar

StartChar: w
Encoding: 119 119 9
GlifName: w
Width: 1086
VWidth: 1494
Flags: HMW
LayerCount: 2
Fore
SplineSet
75 868 m 1
 75 1000 l 1
 425 1000 l 1
 425 868 l 1
 305 868 l 1
 393 270 l 1
 480 648 l 1
 606 648 l 1
 693 270 l 1
 781 868 l 1
 661 868 l 1
 661 1000 l 1
 1011 1000 l 1
 1011 868 l 1
 933 868 l 1
 812 -16 l 1
 667 -16 l 1
 543 423 l 1
 419 -16 l 1
 274 -16 l 1
 153 868 l 1
 75 868 l 1
EndSplineSet
Colour: ffff
EndChar

StartChar: x
Encoding: 120 120 10
GlifName: x
Width: 1086
VWidth: 1494
Flags: HMW
LayerCount: 2
Fore
SplineSet
75 868 m 1
 75 1000 l 1
 425 1000 l 1
 425 868 l 1
 373 868 l 1
 543 620 l 1
 713 868 l 1
 661 868 l 1
 661 1000 l 1
 1011 1000 l 1
 1011 868 l 1
 889 868 l 1
 631 492 l 1
 889 116 l 1
 1011 116 l 1
 1011 -16 l 1
 661 -16 l 1
 661 116 l 1
 713 116 l 1
 543 364 l 1
 373 116 l 1
 425 116 l 1
 425 -16 l 1
 75 -16 l 1
 75 116 l 1
 197 116 l 1
 455 492 l 1
 197 868 l 1
 75 868 l 1
EndSplineSet
Colour: ffff
EndChar

StartChar: y
Encoding: 121 121 11
GlifName: y
Width: 1086
VWidth: 1494
Flags: HMW
LayerCount: 2
Fore
SplineSet
75 868 m 1
 75 1000 l 1
 425 1000 l 1
 425 868 l 1
 349 868 l 1
 543 276 l 1
 737 868 l 1
 661 868 l 1
 661 1000 l 1
 1011 1000 l 1
 1011 868 l 1
 892 868 l 1
 573 -88 l 1
 507 -258 434 -391 198 -391 c 0
 157 -391 116 -391 75 -391 c 1
 75 -259 l 1
 116 -259 157 -259 198 -259 c 0
 344 -259 363 -219 430 -47 c 2
 464 42 l 1
 194 868 l 1
 75 868 l 1
EndSplineSet
Colour: ffff
EndChar

StartChar: z
Encoding: 122 122 12
GlifName: z
Width: 1086
VWidth: 1494
Flags: HMW
LayerCount: 2
Fore
SplineSet
861 275 m 1
 1011 275 l 1
 1011 -16 l 1
 75 -16 l 1
 75 168 l 1
 859 868 l 1
 225 868 l 1
 225 709 l 1
 75 709 l 1
 75 1000 l 1
 1011 1000 l 1
 1011 816 l 1
 227 116 l 1
 861 116 l 1
 861 275 l 1
EndSplineSet
Colour: ffff
EndChar

StartChar: A
Encoding: 65 65 13
GlifName: A_
Width: 1086
VWidth: 1494
Flags: HMW
LayerCount: 2
Fore
SplineSet
410 530 m 1
 676 530 l 1
 543 1015 l 1
 410 530 l 1
75 -16 m 1
 75 116 l 1
 141 116 l 1
 478 1339 l 1
 608 1339 l 1
 945 116 l 1
 1011 116 l 1
 1011 -16 l 1
 661 -16 l 1
 661 116 l 1
 790 116 l 1
 713 398 l 1
 373 398 l 1
 296 116 l 1
 425 116 l 1
 425 -16 l 1
 75 -16 l 1
EndSplineSet
Colour: ffff
EndChar

StartChar: B
Encoding: 66 66 14
GlifName: B_
Width: 1086
VWidth: 1494
Flags: HMW
LayerCount: 2
Fore
SplineSet
195 1207 m 1
 75 1207 l 1
 75 1339 l 1
 546 1339 l 0
 829 1339 935 1142 935 979 c 0
 935 881 903 770 807 694 c 1
 942 617 985 475 985 362 c 0
 985 203 885 -16 596 -16 c 2
 75 -16 l 1
 75 116 l 1
 195 116 l 1
 195 1207 l 1
596 613 m 2
 345 613 l 1
 345 116 l 1
 596 116 l 2
 770 116 835 237 835 362 c 0
 835 493 765 613 596 613 c 2
546 745 m 2
 711 745 785 847 785 979 c 0
 785 1101 726 1207 546 1207 c 2
 345 1207 l 1
 345 745 l 1
 546 745 l 2
EndSplineSet
Colour: ffff
EndChar

StartChar: C
Encoding: 67 67 15
GlifName: C_
Width: 1086
VWidth: 1494
Flags: HMW
LayerCount: 2
Fore
SplineSet
892 229 m 1
 1007 145 l 1
 985 125 l 2
 886 34 755 -16 633 -16 c 0
 188 -16 75 326 75 661 c 0
 75 996 188 1339 633 1339 c 0
 709 1339 789 1319 861 1283 c 1
 861 1348 l 1
 1011 1348 l 1
 1011 998 l 1
 861 998 l 1
 861 1121 l 1
 791 1178 704 1207 633 1207 c 0
 319 1207 225 988 225 661 c 0
 225 334 319 116 633 116 c 0
 709 116 806 149 877 215 c 2
 892 229 l 1
EndSplineSet
Colour: ffff
EndChar

StartChar: D
Encoding: 68 68 16
GlifName: D_
Width: 1086
VWidth: 1494
Flags: HMW
LayerCount: 2
Fore
SplineSet
345 1207 m 1
 345 116 l 1
 491 116 l 2
 666 116 835 225 835 661 c 0
 835 1098 666 1207 491 1207 c 2
 345 1207 l 1
75 -16 m 1
 75 116 l 1
 195 116 l 1
 195 1207 l 1
 75 1207 l 1
 75 1339 l 1
 491 1339 l 2
 782 1339 985 1122 985 661 c 0
 985 199 782 -16 491 -16 c 2
 75 -16 l 1
EndSplineSet
Colour: ffff
EndChar

StartChar: E
Encoding: 69 69 17
GlifName: E_
Width: 1086
VWidth: 1494
Flags: HMW
LayerCount: 2
Fore
SplineSet
861 487 m 1
 711 487 l 1
 711 596 l 1
 345 596 l 1
 345 116 l 1
 861 116 l 1
 861 275 l 1
 1011 275 l 1
 1011 -16 l 1
 75 -16 l 1
 75 116 l 1
 195 116 l 1
 195 1207 l 1
 75 1207 l 1
 75 1339 l 1
 1011 1339 l 1
 1011 1048 l 1
 861 1048 l 1
 861 1207 l 1
 345 1207 l 1
 345 728 l 1
 711 728 l 1
 711 837 l 1
 861 837 l 1
 861 487 l 1
EndSplineSet
Colour: ffff
EndChar

StartChar: F
Encoding: 70 70 18
GlifName: F_
Width: 1086
VWidth: 1494
Flags: HMW
LayerCount: 2
Fore
SplineSet
75 -16 m 1
 75 116 l 1
 195 116 l 1
 195 1207 l 1
 75 1207 l 1
 75 1339 l 1
 1011 1339 l 1
 1011 1048 l 1
 861 1048 l 1
 861 1207 l 1
 345 1207 l 1
 345 728 l 1
 711 728 l 1
 711 837 l 1
 861 837 l 1
 861 487 l 1
 711 487 l 1
 711 596 l 1
 345 596 l 1
 345 116 l 1
 465 116 l 1
 465 -16 l 1
 75 -16 l 1
EndSplineSet
Colour: ffff
EndChar

StartChar: G
Encoding: 71 71 19
GlifName: G_
Width: 1086
VWidth: 1494
Flags: HMW
LayerCount: 2
Fore
SplineSet
569 613 m 1
 569 745 l 1
 1011 745 l 1
 1011 124 l 1
 907 32 762.413151365 -16 633 -16 c 0
 188 -16 75 326 75 661 c 0
 75 996 188 1339 633 1339 c 0
 709 1339 789 1319 861 1283 c 1
 861 1348 l 1
 1011 1348 l 1
 1011 998 l 1
 861 998 l 1
 861 1121 l 1
 791 1178 704 1207 633 1207 c 0
 319 1207 225 988 225 661 c 0
 225 334 319 116 633 116 c 0
 697 116 796 141 861 184 c 1
 861 613 l 1
 569 613 l 1
EndSplineSet
Colour: ffff
EndChar

StartChar: H
Encoding: 72 72 20
GlifName: H_
Width: 1086
VWidth: 1494
Flags: HMW
LayerCount: 2
Fore
SplineSet
75 -16 m 1
 75 116 l 1
 195 116 l 1
 195 1207 l 1
 75 1207 l 1
 75 1339 l 1
 465 1339 l 1
 465 1207 l 1
 345 1207 l 1
 345 728 l 1
 741 728 l 1
 741 1207 l 1
 621 1207 l 1
 621 1339 l 1
 1011 1339 l 1
 1011 1207 l 1
 891 1207 l 1
 891 116 l 1
 1011 116 l 1
 1011 -16 l 1
 621 -16 l 1
 621 116 l 1
 741 116 l 1
 741 596 l 1
 345 596 l 1
 345 116 l 1
 465 116 l 1
 465 -16 l 1
 75 -16 l 1
EndSplineSet
Colour: ffff
EndChar

StartChar: I
Encoding: 73 73 21
GlifName: I_
Width: 1086
VWidth: 1494
Flags: HMW
LayerCount: 2
Fore
SplineSet
175 -16 m 1
 175 116 l 1
 468 116 l 1
 468 1207 l 1
 175 1207 l 1
 175 1339 l 1
 911 1339 l 1
 911 1207 l 1
 618 1207 l 1
 618 116 l 1
 911 116 l 1
 911 -16 l 1
 175 -16 l 1
EndSplineSet
Colour: ffff
EndChar

StartChar: J
Encoding: 74 74 22
GlifName: J_
Width: 1086
VWidth: 1494
Flags: HMW
LayerCount: 2
Fore
SplineSet
518 1207 m 1
 518 1339 l 1
 1011 1339 l 1
 1011 1207 l 1
 891 1207 l 1
 891 445 l 2
 891 217 786 -16 484 -16 c 0
 182 -16 75 218 75 445 c 2
 75 470 l 1
 225 470 l 1
 225 445 l 2
 225 239 304 116 484 116 c 0
 664 116 741 237 741 445 c 2
 741 1207 l 1
 518 1207 l 1
EndSplineSet
Colour: ffff
EndChar

StartChar: K
Encoding: 75 75 23
GlifName: K_
Width: 1086
VWidth: 1494
Flags: HMW
LayerCount: 2
Fore
SplineSet
75 -16 m 1
 75 116 l 1
 195 116 l 1
 195 1207 l 1
 75 1207 l 1
 75 1339 l 1
 465 1339 l 1
 465 1207 l 1
 345 1207 l 1
 345 684 l 1
 694 1207 l 1
 621 1207 l 1
 621 1339 l 1
 1011 1339 l 1
 1011 1207 l 1
 869 1207 l 1
 507 665 l 1
 869 116 l 1
 1011 116 l 1
 1011 -16 l 1
 621 -16 l 1
 621 116 l 1
 695 116 l 1
 420 534 l 1
 345 421 l 1
 345 116 l 1
 465 116 l 1
 465 -16 l 1
 75 -16 l 1
EndSplineSet
Colour: ffff
EndChar

StartChar: L
Encoding: 76 76 24
GlifName: L_
Width: 1086
VWidth: 1494
Flags: HMW
LayerCount: 2
Fore
SplineSet
75 -16 m 1
 75 116 l 1
 194 116 l 1
 194 1207 l 1
 75 1207 l 1
 75 1339 l 1
 465 1339 l 1
 465 1207 l 1
 344 1207 l 1
 344 116 l 1
 861 116 l 1
 861 275 l 1
 1011 275 l 1
 1011 -16 l 1
 75 -16 l 1
EndSplineSet
Colour: ffff
EndChar

StartChar: M
Encoding: 77 77 25
GlifName: M_
Width: 1086
VWidth: 1494
Flags: HMWO
LayerCount: 2
Fore
SplineSet
75 -16 m 1
 75 116 l 1
 195 116 l 1
 195 1207 l 1
 75 1207 l 1
 75 1339 l 1
 326 1338 l 1
 547 837 l 1
 758 1338 l 1
 1011 1339 l 1
 1011 1207 l 1
 891 1207 l 1
 891 116 l 1
 1011 116 l 1
 1011 -16 l 1
 621 -16 l 1
 621 116 l 1
 741 116 l 1
 741 998 l 1
 603 670 l 1
 495 670 l 1
 345 1010 l 1
 345 116 l 1
 465 116 l 1
 465 -16 l 1
 75 -16 l 1
EndSplineSet
Colour: ffff
EndChar

StartChar: N
Encoding: 78 78 26
GlifName: N_
Width: 1086
VWidth: 1494
Flags: HMW
LayerCount: 2
Fore
SplineSet
75 -16 m 1
 75 116 l 1
 195 116 l 1
 195 1207 l 1
 75 1207 l 1
 75 1339 l 1
 326 1339 l 1
 741 393 l 1
 741 1207 l 1
 621 1207 l 1
 621 1339 l 1
 1011 1339 l 1
 1011 1207 l 1
 891 1207 l 1
 891 -16 l 1
 760 -16 l 1
 345 930 l 1
 345 116 l 1
 465 116 l 1
 465 -16 l 1
 75 -16 l 1
EndSplineSet
Colour: ffff
EndChar

StartChar: O
Encoding: 79 79 27
GlifName: O_
Width: 1086
VWidth: 1494
Flags: HMW
LayerCount: 2
Fore
SplineSet
225 661 m 0
 225 324 311 116 543 116 c 0
 775 116 861 324 861 661 c 0
 861 998 775 1207 543 1207 c 0
 311 1207 225 998 225 661 c 0
75 661 m 0
 75 986 159 1339 543 1339 c 0
 927 1339 1011 986 1011 661 c 0
 1011 336 927 -16 543 -16 c 0
 159 -16 75 336 75 661 c 0
EndSplineSet
Colour: ffff
EndChar

StartChar: P
Encoding: 80 80 28
GlifName: P_
Width: 1086
VWidth: 1494
Flags: HMW
LayerCount: 2
Fore
SplineSet
75 -16 m 1
 75 116 l 1
 195 116 l 1
 195 1207 l 1
 75 1207 l 1
 75 1339 l 1
 621 1339 l 0
 910 1339 1011 1120 1011 961 c 0
 1011 800 913 577 621 577 c 2
 345 577 l 1
 345 116 l 1
 465 116 l 1
 465 -16 l 1
 75 -16 l 1
345 709 m 1
 621 709 l 2
 795 709 861 834 861 961 c 0
 861 1086 795 1207 621 1207 c 2
 345 1207 l 1
 345 709 l 1
EndSplineSet
Colour: ffff
EndChar

StartChar: Q
Encoding: 81 81 29
GlifName: Q_
Width: 1086
VWidth: 1494
Flags: HMW
LayerCount: 2
Fore
SplineSet
225 661 m 0
 225 324 311 116 543 116 c 0
 775 116 861 324 861 661 c 0
 861 998 775 1207 543 1207 c 0
 311 1207 225 998 225 661 c 0
868 -211 m 1
 742 -285 l 1
 504 -14 l 1
 151 10 75 348 75 661 c 0
 75 986 159 1339 543 1339 c 0
 927 1339 1011 986 1011 661 c 0
 1011 379 949 78 680 2 c 1
 868 -211 l 1
EndSplineSet
Colour: ffff
EndChar

StartChar: R
Encoding: 82 82 30
GlifName: R_
Width: 1086
VWidth: 1494
Flags: HMW
LayerCount: 2
Fore
SplineSet
75 -16 m 1
 75 116 l 1
 195 116 l 1
 195 1207 l 1
 75 1207 l 1
 75 1339 l 1
 621 1339 l 0
 910 1339 1011 1120 1011 961 c 0
 1011 819 936 629 718 586 c 1
 872 116 l 1
 1011 116 l 1
 1011 -16 l 1
 621 -16 l 1
 621 116 l 1
 716 116 l 1
 565 577 l 1
 345 577 l 1
 345 116 l 1
 465 116 l 1
 465 -16 l 1
 75 -16 l 1
345 709 m 1
 621 709 l 2
 795 709 861 834 861 961 c 0
 861 1086 795 1207 621 1207 c 2
 345 1207 l 1
 345 709 l 1
EndSplineSet
Colour: ffff
EndChar

StartChar: S
Encoding: 83 83 31
GlifName: S_
Width: 1086
VWidth: 1494
Flags: HMW
LayerCount: 2
Fore
SplineSet
225 -25 m 1
 75 -25 l 1
 75 325 l 1
 225 325 l 1
 225 224 l 1
 284 162 417 114 549 114 c 0
 723 114 861 183 861 354 c 0
 861 542 711.483427294 590.736680622 506 647 c 0
 338 693 105 759 105 984 c 0
 105 1224 325 1339 550 1339 c 0
 651 1339 751 1320 831 1278 c 1
 831 1348 l 1
 981 1348 l 1
 981 998 l 1
 831 998 l 1
 831 1093 l 1
 796 1157 691 1207 550 1207 c 0
 377 1207 255 1133 255 984 c 0
 255 865 362 827 552 773 c 0
 744 718 1011 641 1011 354 c 0
 1011 89 769 -18 549 -18 c 0
 435 -18 317 8 225 55 c 1
 225 -25 l 1
EndSplineSet
Colour: ffff
EndChar

StartChar: T
Encoding: 84 84 32
GlifName: T_
Width: 1086
VWidth: 1494
Flags: HMW
LayerCount: 2
Fore
SplineSet
368 -16 m 1
 368 116 l 1
 468 116 l 1
 468 1207 l 1
 225 1207 l 1
 225 1048 l 1
 75 1048 l 1
 75 1339 l 1
 1011 1339 l 1
 1011 1048 l 1
 861 1048 l 1
 861 1207 l 1
 618 1207 l 1
 618 116 l 1
 718 116 l 1
 718 -16 l 1
 368 -16 l 1
EndSplineSet
Colour: ffff
EndChar

StartChar: U
Encoding: 85 85 33
GlifName: U_
Width: 1086
VWidth: 1494
Flags: HMW
LayerCount: 2
Fore
SplineSet
125 1207 m 1
 125 1339 l 1
 475 1339 l 1
 475 1207 l 1
 345 1207 l 1
 345 347 l 2
 345 127 414 66 543 66 c 0
 672 66 741 127 741 347 c 2
 741 1207 l 1
 611 1207 l 1
 611 1339 l 1
 961 1339 l 1
 961 1207 l 1
 891 1207 l 1
 891 347 l 2
 891 103 785 -66 543 -66 c 0
 301 -66 195 103 195 347 c 2
 195 1207 l 1
 125 1207 l 1
EndSplineSet
Colour: ffff
EndChar

StartChar: V
Encoding: 86 86 34
GlifName: V_
Width: 1086
VWidth: 1494
Flags: HMW
LayerCount: 2
Fore
SplineSet
1011 1339 m 1
 1011 1207 l 1
 945 1207 l 1
 608 -16 l 1
 478 -16 l 1
 141 1207 l 1
 75 1207 l 1
 75 1339 l 1
 425 1339 l 1
 425 1207 l 1
 296 1207 l 1
 543 308 l 1
 790 1207 l 1
 661 1207 l 1
 661 1339 l 1
 1011 1339 l 1
EndSplineSet
Colour: ffff
EndChar

StartChar: W
Encoding: 87 87 35
GlifName: W_
Width: 1086
VWidth: 1494
Flags: HMW
LayerCount: 2
Fore
SplineSet
661 1207 m 1
 661 1339 l 1
 1011 1339 l 1
 1011 1207 l 1
 976 1207 l 1
 876 -16 l 1
 743 -16 l 1
 543 493 l 1
 343 -16 l 1
 210 -16 l 1
 110 1207 l 1
 75 1207 l 1
 75 1339 l 1
 425 1339 l 1
 425 1207 l 1
 261 1207 l 1
 340 275 l 1
 485 668 l 1
 601 668 l 1
 746 275 l 1
 825 1207 l 1
 661 1207 l 1
EndSplineSet
Colour: ffff
EndChar

StartChar: X
Encoding: 88 88 36
GlifName: X_
Width: 1086
VWidth: 1494
Flags: HMW
LayerCount: 2
Fore
SplineSet
425 1339 m 1
 425 1207 l 1
 329 1207 l 1
 543 815 l 1
 757 1207 l 1
 661 1207 l 1
 661 1339 l 1
 1011 1339 l 1
 1011 1207 l 1
 924 1207 l 1
 626 662 l 1
 924 116 l 1
 1011 116 l 1
 1011 -16 l 1
 661 -16 l 1
 661 116 l 1
 757 116 l 1
 543 508 l 1
 329 116 l 1
 425 116 l 1
 425 -16 l 1
 75 -16 l 1
 75 116 l 1
 162 116 l 1
 460 661 l 1
 162 1207 l 1
 75 1207 l 1
 75 1339 l 1
 425 1339 l 1
EndSplineSet
Colour: ffff
EndChar

StartChar: Y
Encoding: 89 89 37
GlifName: Y_
Width: 1086
VWidth: 1494
Flags: HMW
LayerCount: 2
Fore
SplineSet
718 116 m 1
 718 -16 l 1
 368 -16 l 1
 368 116 l 1
 468 116 l 1
 468 648 l 1
 162 1207 l 1
 75 1207 l 1
 75 1339 l 1
 425 1339 l 1
 425 1207 l 1
 329 1207 l 1
 543 814 l 1
 757 1207 l 1
 661 1207 l 1
 661 1339 l 1
 1011 1339 l 1
 1011 1207 l 1
 924 1207 l 1
 618 648 l 1
 618 116 l 1
 718 116 l 1
EndSplineSet
Colour: ffff
EndChar

StartChar: Z
Encoding: 90 90 38
GlifName: Z_
Width: 1086
VWidth: 1494
Flags: HMW
LayerCount: 2
Fore
SplineSet
861 275 m 1
 1011 275 l 1
 1011 -16 l 1
 75 -16 l 1
 75 81 l 1
 815 1207 l 1
 225 1207 l 1
 225 1048 l 1
 75 1048 l 1
 75 1339 l 1
 1011 1339 l 1
 1011 1243 l 1
 271 116 l 1
 861 116 l 1
 861 275 l 1
EndSplineSet
Colour: ffff
EndChar

StartChar: zero
Encoding: 48 48 39
GlifName: zero
Width: 1086
VWidth: 1494
Flags: HMW
LayerCount: 2
Fore
SplineSet
780 1171 m 1
 915 1113 l 1
 304 161 l 1
 169 219 l 1
 780 1171 l 1
EndSplineSet
Refer: 27 79 N 1 0 0 1 0 0 2
Colour: ffff
EndChar

StartChar: one
Encoding: 49 49 40
GlifName: one
Width: 1086
VWidth: 1494
Flags: HMW
LayerCount: 2
Fore
SplineSet
175 -16 m 1
 175 116 l 1
 488 116 l 1
 488 1007 l 1
 175 1007 l 1
 175 1139 l 1
 488 1139 l 1
 488 1298 l 1
 638 1298 l 1
 638 116 l 1
 911 116 l 1
 911 -16 l 1
 175 -16 l 1
EndSplineSet
Colour: ffff
EndChar

StartChar: two
Encoding: 50 50 41
GlifName: two
Width: 1086
VWidth: 1494
Flags: HMW
LayerCount: 2
Fore
SplineSet
861 315 m 1
 1011 315 l 1
 1011 -16 l 1
 75 -16 l 1
 75 167 l 0
 75 431 317 521 499 580 c 0
 702 646 861 723 861 938 c 0
 861 1087 755 1207 543 1207 c 0
 304 1207 225 1055 225 838 c 1
 75 838 l 1
 75 1079 186 1339 543 1339 c 0
 837 1339 1011 1153 1011 938 c 0
 1011 639 760 524 551 456 c 0
 363 395 225 338 225 167 c 2
 225 116 l 1
 861 116 l 1
 861 315 l 1
EndSplineSet
Colour: ffff
EndChar

StartChar: three
Encoding: 51 51 42
GlifName: three
Width: 1086
VWidth: 1494
Flags: HMW
LayerCount: 2
Fore
SplineSet
100 1065 m 1
 170 1218 323 1339 557 1339 c 0
 830 1339 991 1170 991 960 c 0
 991 827 935 721 809 661 c 1
 936 601 991 496 991 363 c 0
 991 153 830 -16 557 -16 c 0
 323 -16 170 105 100 258 c 1
 240 306 l 1
 292 191 389 116 557 116 c 0
 748 116 841 216 841 363 c 0
 841 507 791 561 559 586 c 0
 503 592 436 595 360 595 c 1
 360 727 l 1
 436 727 503 730 559 736 c 0
 791 760 841 816 841 960 c 0
 841 1107 748 1207 557 1207 c 0
 389 1207 292 1132 240 1017 c 1
 100 1065 l 1
EndSplineSet
Colour: ffff
EndChar

StartChar: four
Encoding: 52 52 43
GlifName: four
Width: 1086
VWidth: 1494
Flags: HMW
LayerCount: 2
Fore
SplineSet
685 1348 m 1
 835 1348 l 1
 835 477 l 1
 911 477 l 1
 911 636 l 1
 1061 636 l 1
 1061 345 l 1
 835 345 l 1
 835 116 l 1
 955 116 l 1
 955 -16 l 1
 565 -16 l 1
 565 116 l 1
 685 116 l 1
 685 345 l 1
 140 345 l 1
 73 411 l 1
 305 1345 l 1
 453 1321 l 1
 243 477 l 1
 685 477 l 1
 685 1348 l 1
EndSplineSet
Colour: ffff
EndChar

StartChar: five
Encoding: 53 53 44
GlifName: five
Width: 1086
VWidth: 1494
Flags: HMW
LayerCount: 2
Fore
SplineSet
1011 1008 m 1
 861 1008 l 1
 861 1207 l 1
 225 1207 l 1
 225 922 l 1
 318 973 426 998 525 998 c 0
 849 998 1011 756 1011 514 c 0
 1011 260 892 -16 528 -16 c 0
 265 -16 102 145 75 351 c 1
 225 365 l 1
 244 213 347 116 528 116 c 0
 770 116 861 281 861 514 c 0
 861 712 743 866 525 866 c 0
 400.452560515 866 269 808 202 722 c 1
 75 752 l 1
 75 1339 l 1
 1011 1339 l 1
 1011 1008 l 1
EndSplineSet
Colour: ffff
EndChar

StartChar: six
Encoding: 54 54 45
GlifName: six
Width: 1086
VWidth: 1494
Flags: HMW
LayerCount: 2
Fore
SplineSet
245 453 m 0
 245 258 346 116 542 116 c 0
 738 116 841 259 841 453 c 0
 841 647 738 789 542 789 c 0
 346 789 245 648 245 453 c 0
542 921 m 0
 852 921 991 683 991 453 c 0
 991 223 853 -16 542 -16 c 0
 231 -16 95 224 95 453 c 2
 95 762 l 2
 95 979 149 1339 552 1339 c 0
 780 1339 937 1229 996 1053 c 1
 852 1015 l 1
 810 1140 720 1207 552 1207 c 0
 320 1207 256 1024 246 819 c 1
 319 883 417 921 542 921 c 0
EndSplineSet
Colour: ffff
EndChar

StartChar: eight
Encoding: 56 56 46
GlifName: eight
Width: 1086
VWidth: 1494
Flags: HMW
LayerCount: 2
Fore
SplineSet
544 764 m 0
 721 764 771 851 771 985 c 0
 771 1118 721 1205 544 1205 c 0
 367 1205 317 1118 317 985 c 0
 317 851 367 764 544 764 c 0
544 632 m 0
 315 632 255 511 255 374 c 0
 255 237 315 116 544 116 c 0
 772 116 831 237 831 374 c 0
 831 511 772 632 544 632 c 0
798 706 m 1
 934 630 981 494 981 374 c 0
 981 194 872 -16 544 -16 c 0
 217 -16 105 194 105 374 c 0
 105 495 154 631 290 706 c 1
 200 776 167 883 167 985 c 0
 167 1158 267 1337 544 1337 c 0
 821 1337 921 1158 921 985 c 0
 921 883 888 775 798 706 c 1
EndSplineSet
Colour: ffff
EndChar

StartChar: period
Encoding: 46 46 47
GlifName: period
Width: 1086
VWidth: 1850
Flags: HMW
LayerCount: 2
Fore
SplineSet
643 186 m 1
 643 -15 l 1
 443 -15 l 1
 443 186 l 1
 643 186 l 1
EndSplineSet
Colour: ffff00
EndChar

StartChar: comma
Encoding: 44 44 49
GlifName: comma
Width: 1086
VWidth: 1850
Flags: HMW
LayerCount: 2
Fore
SplineSet
463 -242 m 1
 373 -204 l 1
 623 224 l 1
 713 186 l 1
 463 -242 l 1
EndSplineSet
Colour: ffff00
EndChar

StartChar: bracketleft
Encoding: 91 91 51
GlifName: bracketleft
Width: 1086
VWidth: 1850
Flags: HMW
LayerCount: 2
Fore
SplineSet
852 116 m 1
 852 -16 l 1
 425 -16 l 1
 425 1339 l 1
 852 1339 l 1
 852 1207 l 1
 575 1207 l 1
 575 116 l 1
 852 116 l 1
EndSplineSet
Colour: ffff
EndChar

StartChar: braceleft
Encoding: 123 123 53
GlifName: braceleft
Width: 1086
VWidth: 0
Flags: HMW
LayerCount: 2
Fore
SplineSet
900 116 m 1
 900 -16 l 1
 875 -16 l 2
 659 -16 614 122 614 353 c 0
 614 524 575 580 536 591 c 0
 525 594 515 595 500 595 c 2
 475 595 l 1
 475 727 l 1
 500 727 l 2
 516 727 527 729 536 731 c 0
 575 743 614 801 614 971 c 0
 614 1202 659 1339 875 1339 c 2
 900 1339 l 1
 900 1207 l 1
 875 1207 l 2
 781 1207 764 1206 764 971 c 0
 764 845 751 734 678 661 c 1
 753 588 764 479 764 353 c 0
 764 118 781 116 875 116 c 2
 900 116 l 1
EndSplineSet
Colour: ffff
EndChar

StartChar: bar
Encoding: 124 124 56
GlifName: bar
Width: 1086
VWidth: 1850
Flags: HMW
LayerCount: 2
Fore
SplineSet
468 1548 m 1
 618 1548 l 1
 618 -270 l 1
 468 -270 l 1
 468 1548 l 1
EndSplineSet
Colour: ffff
EndChar

StartChar: hyphen
Encoding: 45 45 58
GlifName: hyphen
Width: 1086
VWidth: 1941
Flags: HMW
LayerCount: 2
Fore
SplineSet
1011 574 m 1
 1011 442 l 1
 75 442 l 1
 75 574 l 1
 1011 574 l 1
EndSplineSet
Colour: ffff
EndChar

StartChar: exclam
Encoding: 33 33 60
GlifName: exclam
Width: 1086
VWidth: 0
Flags: HMW
LayerCount: 2
Fore
SplineSet
663 95 m 0
 663 40 618 -16 543 -16 c 0
 468 -16 423 40 423 95 c 0
 423 148 467 207 543 207 c 0
 619 207 663 148 663 95 c 0
618 404 m 1
 468 404 l 1
 468 1348 l 1
 618 1348 l 1
 618 404 l 1
EndSplineSet
Colour: ffff
EndChar

StartChar: quotesingle
Encoding: 39 39 62
GlifName: quotesingle
Width: 1086
VWidth: 1850
Flags: HMW
LayerCount: 2
Fore
SplineSet
473 1338 m 1
 613 1338 l 1
 613 841 l 1
 473 841 l 1
 473 1338 l 1
EndSplineSet
Colour: ffff00
EndChar

StartChar: parenleft
Encoding: 40 40 63
GlifName: parenleft
Width: 1086
VWidth: 1850
Flags: HMW
LayerCount: 2
Fore
SplineSet
811 1349 m 1
 660 1193 575 919 575 640 c 0
 575 361 660 87 811 -69 c 1
 697 -155 l 1
 510 37 425 341 425 640 c 0
 425 939 510 1243 697 1435 c 1
 811 1349 l 1
EndSplineSet
Colour: ffff
EndChar

StartChar: less
Encoding: 60 60 65
GlifName: less
Width: 1086
VWidth: 1850
Flags: HMW
LayerCount: 2
Fore
SplineSet
628.5 915 m 1
 760.5 850 l 1
 505.5 508 l 1
 760.5 167 l 1
 628.5 102 l 1
 325.5 508 l 1
 628.5 915 l 1
EndSplineSet
Colour: ffff
EndChar

StartChar: backslash
Encoding: 92 92 66
GlifName: backslash
Width: 1086
VWidth: 1850
Flags: HMW
LayerCount: 2
Fore
SplineSet
1023 -25 m 1
 856 -25 l 1
 63 1348 l 1
 231 1348 l 1
 1023 -25 l 1
EndSplineSet
Colour: ffff
EndChar

StartChar: asterisk
Encoding: 42 42 67
GlifName: asterisk
Width: 1086
VWidth: 0
Flags: HMW
LayerCount: 2
Fore
SplineSet
88 1093 m 1
 146 1215 l 1
 468 1110 l 1
 468 1463 l 1
 618 1463 l 1
 618 1110 l 1
 940 1216 l 1
 998 1094 l 1
 656 983 l 1
 872 686 l 1
 740 621 l 1
 543 893 l 1
 346 621 l 1
 214 686 l 1
 430 983 l 1
 88 1093 l 1
EndSplineSet
Colour: ffff
EndChar

StartChar: numbersign
Encoding: 35 35 68
GlifName: numbersign
Width: 1086
VWidth: 1850
Flags: HMW
LayerCount: 2
Fore
SplineSet
306 -25 m 1
 154 -25 l 1
 248 424 l 1
 75 424 l 1
 75 556 l 1
 276 556 l 1
 324 791 l 1
 135 791 l 1
 135 923 l 1
 352 923 l 1
 441 1348 l 1
 593 1348 l 1
 504 923 l 1
 686 923 l 1
 775 1348 l 1
 927 1348 l 1
 838 923 l 1
 1011 923 l 1
 1011 791 l 1
 810 791 l 1
 762 556 l 1
 951 556 l 1
 951 424 l 1
 734 424 l 1
 640 -25 l 1
 488 -25 l 1
 582 424 l 1
 400 424 l 1
 306 -25 l 1
658 791 m 1
 476 791 l 1
 428 556 l 1
 610 556 l 1
 658 791 l 1
EndSplineSet
Colour: ffff
EndChar

StartChar: percent
Encoding: 37 37 69
GlifName: percent
Width: 1086
VWidth: 1850
Flags: HMW
LayerCount: 2
Fore
SplineSet
442 1128 m 0
 442 1213 401 1264 323 1264 c 0
 245 1264 200 1212 200 1128 c 0
 200 1045 248 998 323 998 c 0
 397 998 442 1044 442 1128 c 0
542 1128 m 0
 542 1017 453 914 323 914 c 0
 193 914 100 1016 100 1128 c 0
 100 1237 186 1348 323 1348 c 0
 461 1348 542 1236 542 1128 c 0
886 189 m 0
 886 274 845 325 767 325 c 0
 689 325 644 273 644 189 c 0
 644 106 692 59 767 59 c 0
 841 59 886 105 886 189 c 0
986 189 m 0
 986 78 897 -25 767 -25 c 0
 637 -25 544 77 544 189 c 0
 544 298 630 409 767 409 c 0
 905 409 986 297 986 189 c 0
EndSplineSet
Refer: 70 47 N 1 0 0 1 0 0 2
Colour: ffff
EndChar

StartChar: slash
Encoding: 47 47 70
GlifName: slash
Width: 1086
VWidth: 1850
Flags: HMW
LayerCount: 2
Fore
SplineSet
297 -25 m 1
 150 -25 l 1
 788 1348 l 1
 936 1348 l 1
 297 -25 l 1
EndSplineSet
Colour: ffff
EndChar

StartChar: AE
Encoding: 198 198 75
GlifName: A_E_
Width: 2048
VWidth: 1850
Flags: HM
LayerCount: 2
Back
SplineSet
81.341796875 4.5185546875 m 1
 759.188476562 1475.89746094 l 1
 1733.47949219 1475.89746094 l 1
 1733.47949219 1394.55566406 l 1
 930.004882812 1394.55566406 l 1
 930.004882812 780.87890625 l 1
 1733.47949219 780.87890625 l 1
 1733.47949219 699.537109375 l 1
 930.004882812 699.537109375 l 1
 930.004882812 85.8603515625 l 1
 1733.47949219 85.8603515625 l 1
 1733.47949219 4.5185546875 l 1
 839.625976562 4.5185546875 l 1
 839.625976562 422.072265625 l 1
 371.459960938 422.072265625 l 1
 178.951171875 4.5185546875 l 1
 81.341796875 4.5185546875 l 1
839.625976562 1394.55566406 m 1
 818.838867188 1394.55566406 l 1
 408.515625 503.4140625 l 1
 839.625976562 503.4140625 l 1
 839.625976562 1394.55566406 l 1
EndSplineSet
Colour: ffff
EndChar

StartChar: Oslash
Encoding: 216 216 78
GlifName: O_slash
Width: 2048
VWidth: 1850
Flags: HM
LayerCount: 2
Back
SplineSet
163.134765625 20.787109375 m 1
 90.8310546875 69.591796875 l 1
 1272.99511719 1459.62890625 l 1
 1345.29882812 1410.82421875 l 1
 163.134765625 20.787109375 l 1
EndSplineSet
Refer: 27 79 N 1 0 0 1 -8.58605 0 2
Colour: ffff
EndChar

StartChar: uni0627
Encoding: 1575 1575 80
GlifName: uni0627
Width: 1086
VWidth: 1850
Flags: HMW
AnchorPoint: "Anchor-1" 519 -259 basechar 0
AnchorPoint: "Anchor-3" 537 1362 basechar 0
LayerCount: 2
Fore
SplineSet
486 -66 m 1
 369 27 l 1
 430.211866765 108.615822354 468 252.253466601 468 634 c 0
 468 872 468 1110 468 1348 c 1
 618 1348 l 1
 618 1110 618 872 618 634 c 0
 618 258.697111099 592.2974189 68.6433972729 486 -66 c 1
EndSplineSet
Substitution2: "'fina' Terminal Forms in Arabic lookup 1 subtable" uniFE8E
Colour: ffff
EndChar

StartChar: uni066E
Encoding: 1646 1646 81
GlifName: uni066E_
Width: 1086
VWidth: 2267
Flags: HMW
AnchorPoint: "Anchor-1" 382 -177 basechar 0
AnchorPoint: "Anchor-3" 421 493 basechar 0
LayerCount: 2
Fore
SplineSet
-192 735 m 1
 -57 672 l 1
 -95.0399937649 584.508014341 -125 493.315362646 -125 423 c 0
 -125 239 -1 125 394 125 c 0
 788 125 911 239 911 423 c 0
 911 493.569649374 881.187887058 584.167859766 843 672 c 1
 978 735 l 1
 1026.58618579 633.410702447 1061 520.577768075 1061 423 c 0
 1061 119 808 -25 394 -25 c 0
 -19 -25 -275 118 -275 423 c 0
 -275 520.762238057 -240.695004098 633.183173249 -192 735 c 1
EndSplineSet
Substitution2: "'fina' Terminal Forms in Arabic lookup 1 subtable" uniFBE8
Colour: ffff
EndChar

StartChar: uni0631
Encoding: 1585 1585 82
GlifName: uni0631
Width: 1086
VWidth: 1446
Flags: HMW
AnchorPoint: "Anchor-1" 587 -601 basechar 0
AnchorPoint: "Anchor-3" 744 569 basechar 0
LayerCount: 2
Fore
SplineSet
703 460 m 1
 826 544 l 1
 915.206954063 419.110264312 967 273.535210286 967 111 c 0
 967 -223.736514013 713.201998829 -473.943840094 175 -517 c 1
 163 -367 l 1
 651.099923981 -327.952006082 817 -130.321737386 817 111 c 0
 817 246.588036535 772.140088878 356.289866684 703 460 c 1
EndSplineSet
Substitution2: "'fina' Terminal Forms in Arabic lookup 1 subtable" uniFEAE
Colour: ffff
EndChar

StartChar: uni0633
Encoding: 1587 1587 83
GlifName: uni0633
Width: 1086
VWidth: 1321
Flags: HMW
AnchorPoint: "Anchor-1" -48 -591 basechar 0
AnchorPoint: "Anchor-3" 551 592 basechar 0
LayerCount: 2
Fore
SplineSet
763 642 m 1
 888 722 l 1
 957.049548446 623.357787934 1011 462.967398014 1011 311 c 0
 1011 173 955 -25 758 -25 c 0
 690 -25 632 4 595 50 c 1
 556 2 500 -25 432 -25 c 0
 414 -25 396 -23 382 -20 c 1
 382 -282 260 -514 -43 -514 c 0
 -366 -514 -472 -254 -472 -4 c 0
 -472 179.602495415 -419.893132925 365.057242841 -366 520 c 1
 -225 469 l 1
 -276.514426584 331.628195776 -322 153.961759423 -322 -4 c 0
 -322 -224 -252 -364 -43 -364 c 0
 155 -364 232 -242 232 -19 c 0
 232 46 223 118 208 193 c 0
 150 484 l 1
 297 514 l 1
 316 417 354 223 354 223 c 2
 368 152 376.392916805 125 432 125 c 0
 479 125 503 146 515 284 c 0
 520.430615603 349.16738723 521 440.55859375 521 527 c 1
 669 527 l 1
 669 440.688476562 669.578551473 349.057382325 675 284 c 0
 687 146 711 125 758 125 c 0
 817 125 861 185 861 311 c 0
 861 433.773731376 809.072753894 567.574782171 763 642 c 1
EndSplineSet
Substitution2: "'init' Initial Forms in Arabic lookup 3 subtable" uniFEB3
Substitution2: "'medi' Medial Forms in Arabic lookup 2 subtable" uniFEB4
Substitution2: "'fina' Terminal Forms in Arabic lookup 1 subtable" uniFEB2
Colour: ffff
EndChar

StartChar: uni066F
Encoding: 1647 1647 84
GlifName: uni066F_
Width: 1086
VWidth: 1321
Flags: HMW
AnchorPoint: "Anchor-1" 505 -642 basechar 0
AnchorPoint: "Anchor-3" 762 709 basechar 0
LayerCount: 2
Fore
SplineSet
931 155 m 1
 912 397 829 583 768 583 c 0
 707 583 602 410 602 254 c 0
 602 139 655 127 758 127 c 0
 828 127 880 136 931 155 c 1
768 733 m 0
 1046 733 1085 266 1085 45 c 0
 1085 -315 813 -514 546 -514 c 0
 282 -514 1 -332 1 10 c 0
 1 190.994012688 56.8845085858 375.769017172 132 526 c 1
 267 461 l 1
 206.834837629 322.620126547 151 164.613885243 151 10 c 0
 151 -234 344 -364 546 -364 c 0
 730 -364 912 -241 933 -1 c 1
 878 -16 822 -23 758 -23 c 0
 634 -23 452 25 452 254 c 0
 452 415 541 733 768 733 c 0
EndSplineSet
Colour: ffff
EndChar

StartChar: uni06BA
Encoding: 1722 1722 85
GlifName: uni06B_A_
Width: 1086
VWidth: 1321
Flags: HMW
AnchorPoint: "Anchor-1" 492 -628 basechar 0
AnchorPoint: "Anchor-3" 542 380 basechar 0
LayerCount: 2
Fore
SplineSet
854 477 m 1
 998 519 l 1
 1082 229 l 2
 1101 162 1113 96 1113 31 c 0
 1113 -333 831 -514 546 -514 c 0
 262 -514 -27 -334 -27 10 c 0
 -27 192.860986827 36.6368474598 378.00088701 119 529 c 1
 251 457 l 1
 179.016683488 325.030586395 123 160.13722421 123 10 c 0
 123 -232 316 -364 546 -364 c 0
 771 -364 963 -237 963 31 c 0
 963 78 955 130 938 187 c 2
 854 477 l 1
EndSplineSet
Colour: ffff
EndChar

StartChar: uni06A1
Encoding: 1697 1697 86
GlifName: uni06A_1
Width: 1086
VWidth: 1458
Flags: HMW
AnchorPoint: "Anchor-1" 287 -96 basechar 0
AnchorPoint: "Anchor-3" 690 1132 basechar 0
LayerCount: 2
Fore
SplineSet
857 551 m 1
 838 785 757 954 694 954 c 0
 628 954 528 802 528 651 c 0
 528 536 581 525 684 525 c 0
 756 525 806 533 857 551 c 1
694 1104 m 0
 970 1104 1011 661 1011 440 c 0
 1011 154 808 -25 322 -25 c 0
 -58 -25 -325 89 -325 380 c 0
 -325 471.062995328 -291.747097234 574.681676361 -249 673 c 1
 -111 613 l 1
 -146.538378904 531.261728522 -175 437.680855585 -175 380 c 0
 -175 224 -52 125 322 125 c 0
 742 125 843 241 859 395 c 1
 802 380 747 375 684 375 c 0
 560 375 378 422 378 651 c 0
 378 817 472 1104 694 1104 c 0
EndSplineSet
Colour: ffff
EndChar

StartChar: uni0644
Encoding: 1604 1604 87
GlifName: uni0644
Width: 1086
VWidth: 1321
Flags: HMW
AnchorPoint: "Anchor-1" 451 -492 basechar 0
AnchorPoint: "Anchor-3" 485 378 basechar 0
LayerCount: 2
Fore
SplineSet
861 1348 m 1
 1011 1348 l 1
 1011 121 l 0
 1011 -238 729 -398 484 -398 c 0
 167 -398 -43 -202 -43 74 c 0
 -43 229.558406103 22.7370080753 403.431811305 131 555 c 1
 254 470 l 1
 161.459863365 337.799804807 107 193.296912079 107 74 c 0
 107 -112 233 -248 484 -248 c 0
 671 -248 861 -139 861 121 c 0
 861 1348 l 1
EndSplineSet
Substitution2: "'init' Initial Forms in Arabic lookup 3 subtable" uniFEDF
Substitution2: "'medi' Medial Forms in Arabic lookup 2 subtable" uniFEE0
Substitution2: "'fina' Terminal Forms in Arabic lookup 1 subtable" uniFEDE
Colour: ffff
EndChar

StartChar: uni0645
Encoding: 1605 1605 88
GlifName: uni0645
Width: 1086
VWidth: 1282
Flags: HMW
AnchorPoint: "Anchor-1" 628 -232 basechar 0
AnchorPoint: "Anchor-3" 686 694 basechar 0
LayerCount: 2
Fore
SplineSet
434 208 m 1
 467.023596422 199.083628966 498.411355963 188.004639962 530 174.824235284 c 0
 593.368910875 148.383471052 658.958551671 125 740 125 c 0
 828 125 865 160 865 277 c 0
 865 400 793 504 694 504 c 0
 522 504 464 368 434 208 c 1
285 227 m 1
 316 397 401 654 694 654 c 0
 913 654 1015 442 1015 277 c 0
 1015 103 917 -25 740 -25 c 0
 636 -25 559 -1 488 30 c 0
 432 54 374 78 306 78 c 0
 251 78 221 50 221 -35 c 2
 221 -835 l 1
 71 -835 l 1
 71 -35 l 2
 71 94 144 215 285 227 c 1
EndSplineSet
Substitution2: "'init' Initial Forms in Arabic lookup 3 subtable" uniFEE3
Substitution2: "'medi' Medial Forms in Arabic lookup 2 subtable" uniFEE4
Substitution2: "'fina' Terminal Forms in Arabic lookup 1 subtable" uniFEE2
Colour: ffff
EndChar

StartChar: uni0635
Encoding: 1589 1589 89
GlifName: uni0635
Width: 1086
VWidth: 1321
Flags: HMW
AnchorPoint: "Anchor-1" -82 -642 basechar 0
AnchorPoint: "Anchor-3" 742 685 basechar 0
LayerCount: 2
Fore
SplineSet
401 175 m 1
 438 138 483 125 548 125 c 0
 770 125 911 270 911 380 c 0
 911 487 879 542 772 542 c 0
 656 542 480 373 401 175 c 1
150 484 m 1
 297 513 l 1
 307 463 317 413 327 363 c 1
 431 535 594 692 772 692 c 0
 980 692 1061 532 1061 380 c 0
 1061 154 822 -25 548 -25 c 0
 493 -25 434 -15 382 9 c 1
 382 -19 l 2
 382 -281 260 -514 -43 -514 c 0
 -366 -514 -472 -254 -472 -4 c 0
 -472 179.602495415 -419.893132925 365.057242841 -366 520 c 1
 -225 469 l 1
 -276.514426584 331.628195776 -322 153.961759423 -322 -4 c 0
 -322 -224 -252 -364 -43 -364 c 0
 155 -364 232 -242 232 -19 c 0
 232 46 221.867021172 117.782277861 208 193 c 2
 150 484 l 1
EndSplineSet
Substitution2: "'init' Initial Forms in Arabic lookup 3 subtable" uniFEBB
Substitution2: "'medi' Medial Forms in Arabic lookup 2 subtable" uniFEBC
Substitution2: "'fina' Terminal Forms in Arabic lookup 1 subtable" uniFEBA
Colour: ffff
EndChar

StartChar: uni0648
Encoding: 1608 1608 90
GlifName: uni0648
Width: 1086
VWidth: 1446
Flags: HMW
AnchorPoint: "Anchor-1" 573 -587 basechar 0
AnchorPoint: "Anchor-3" 599 713 basechar 0
LayerCount: 2
Fore
SplineSet
769 152 m 1
 749 386 668 554 604 554 c 0
 538 554 439 402 439 251 c 0
 439 136 493 125 596 125 c 0
 668 125 716 132 769 152 c 1
604 704 m 0
 880 704 923 261 923 40 c 0
 923 -224.61373482 613.048912772 -477.476086978 219 -509 c 1
 207 -359 l 1
 515.030959321 -334.357523254 725.431083846 -154.866881925 767 -5 c 1
 712 -19 658 -25 596 -25 c 0
 472 -25 289 22 289 251 c 0
 289 417 382 704 604 704 c 0
EndSplineSet
Substitution2: "'fina' Terminal Forms in Arabic lookup 1 subtable" uniFEEE
Colour: ffff
EndChar

StartChar: uni0637
Encoding: 1591 1591 91
GlifName: uni0637
Width: 1086
VWidth: 1407
Flags: HMW
AnchorPoint: "Anchor-1" 464 -164 basechar 0
AnchorPoint: "Anchor-3" 733 694 basechar 0
LayerCount: 2
Fore
SplineSet
132 1348 m 1
 282 1348 l 1
 282 443 l 1
 405 595 562 726 732 726 c 0
 941 726 1061 593 1061 430 c 0
 1061 81 543 -25 170 -25 c 0
 78.9107206007 -25 -12.0436538595 -17.9530153825 -93 -5 c 1
 -72 144 l 1
 -20.0138831292 136.761665976 31.8553659835 130.596389175 87 127 c 1
 100 157 116 188 132 217 c 1
 132 1348 l 1
254 127 m 1
 624 145 911 275 911 430 c 0
 911 512 872 576 732 576 c 0
 585 576 367 341 254 127 c 1
EndSplineSet
Substitution2: "'init' Initial Forms in Arabic lookup 3 subtable" uniFEC3
Substitution2: "'medi' Medial Forms in Arabic lookup 2 subtable" uniFEC4
Substitution2: "'fina' Terminal Forms in Arabic lookup 1 subtable" uniFEC2
Colour: ffff
EndChar

StartChar: uni06A9
Encoding: 1705 1705 92
GlifName: uni06A_9
Width: 1086
VWidth: 1500
Flags: HMW
AnchorPoint: "Anchor-1" 410 -150 basechar 0
AnchorPoint: "Anchor-3" 807 1276 basechar 0
LayerCount: 2
Fore
SplineSet
1251 1342 m 1
 1314 1207 l 1
 690 916 l 1
 862 779 1059 551 1059 340 c 0
 1059 76 817 -25 480 -25 c 0
 117 -25 -75 135 -75 381 c 0
 -75 475.485671218 -35.7126590326 574.860125107 14 666 c 1
 146 594 l 1
 106.381230324 521.365588927 75 439.753652174 75 381 c 0
 75 240 156 125 480 125 c 0
 811 125 909 211 909 340 c 0
 909 489 680 757 511 860 c 0
 499 867 487 874 475 881 c 1
 475 981 l 1
 1251 1342 l 1
EndSplineSet
Substitution2: "'init' Initial Forms in Arabic lookup 3 subtable" uniFB90
Substitution2: "'medi' Medial Forms in Arabic lookup 2 subtable" uniFB91
Substitution2: "'fina' Terminal Forms in Arabic lookup 1 subtable" uniFB8F
Colour: ffff
EndChar

StartChar: uni062F
Encoding: 1583 1583 93
GlifName: uni062F_
Width: 1086
VWidth: 1811
Flags: HMW
AnchorPoint: "Anchor-1" 492 -150 basechar 0
AnchorPoint: "Anchor-3" 526 934 basechar 0
LayerCount: 2
Fore
SplineSet
131 302 m 1
 281 302 l 1
 281 153.432077259 359.240710603 125 512 125 c 0
 695 125 805 160 805 295 c 0
 805 468.678832783 607.596207936 717.182140686 476 828 c 1
 569 945 l 1
 730.299267305 824.025549521 955 544.605314468 955 295 c 0
 955 17 689 -25 512 -25 c 0
 358.775541894 -25 131 18.953786962 131 302 c 1
EndSplineSet
Substitution2: "'fina' Terminal Forms in Arabic lookup 1 subtable" uniFEAA
Colour: ffff
EndChar

StartChar: uni062D
Encoding: 1581 1581 94
GlifName: uni062D_
Width: 1086
VWidth: 1274
Flags: HMW
AnchorPoint: "Anchor-1" 519 -819 basechar 0
AnchorPoint: "Anchor-3" 313 801 basechar 0
LayerCount: 2
Fore
SplineSet
114 463 m 1
 -29 508 l 1
 17.6692391568 668.008819966 144.687690607 776 306 776 c 0
 453 776 557 711 650 652 c 0
 754 586 869 523 1049 520 c 0
 1123 518 l 1
 1123 360 l 1
 1048 360 l 0
 550 360 113 217 113 -159 c 0
 113 -397 321 -532 610 -532 c 0
 754.711647427 -532 873.348319196 -504.217226935 988 -466 c 1
 1036 -608 l 1
 909.029292061 -650.323569313 773.043542528 -682 610 -682 c 0
 285 -682 -37 -514 -37 -159 c 0
 -37 232 297 411 652 476 c 1
 622 493 595 510 570 526 c 0
 476 586 407 626 306 626 c 0
 208.589759129 626 147.606450117 559.618544086 114 463 c 1
EndSplineSet
Substitution2: "'init' Initial Forms in Arabic lookup 3 subtable" uniFEA3
Substitution2: "'medi' Medial Forms in Arabic lookup 2 subtable" uniFEA4
Substitution2: "'fina' Terminal Forms in Arabic lookup 1 subtable" uniFEA2
Colour: ffff
EndChar

StartChar: uni0639
Encoding: 1593 1593 95
GlifName: uni0639
Width: 1086
VWidth: 1436
Flags: HMW
AnchorPoint: "Anchor-1" 573 -833 basechar 0
AnchorPoint: "Anchor-3" 543 1172 basechar 0
LayerCount: 2
Fore
SplineSet
586 538 m 0
 629.666836092 538 684.210243867 540.954819494 738.999996428 545.93203751 c 0
 794.331867064 550.958502688 850.079790035 554 895 554 c 1
 895 404 l 1
 550.039556835 404 225 138.617635533 225 -172 c 0
 225 -407 396 -518 628 -518 c 0
 736.903844736 -518 853.267873551 -486.241875659 955 -440 c 1
 1018 -577 l 1
 899.389687754 -633.726671074 758.244409921 -668 628 -668 c 0
 348 -668 75 -512 75 -172 c 0
 75 65 218 276 412 408 c 1
 271 446 147 542 147 722 c 0
 147 951 327 1155 560 1155 c 0
 713.540284138 1155 801.502426971 1076.24635954 857 993 c 1
 731 909 l 1
 699.767743601 955.848384598 662.258983426 1005 560 1005 c 0
 419 1005 297 876 297 722 c 0
 297 596 401 538 586 538 c 0
EndSplineSet
Substitution2: "'init' Initial Forms in Arabic lookup 3 subtable" uniFECB
Substitution2: "'medi' Medial Forms in Arabic lookup 2 subtable" uniFECC
Substitution2: "'fina' Terminal Forms in Arabic lookup 1 subtable" uniFECA
Colour: ffff
EndChar

StartChar: uni0622
Encoding: 1570 1570 97
GlifName: uni0622
Width: 1086
VWidth: 1850
Flags: HMW
AnchorPoint: "Anchor-3" 553 1707 basechar 0
AnchorPoint: "Anchor-1" 464 -300 basechar 0
LayerCount: 2
Fore
SplineSet
841 1747 m 1
 991 1747 l 1
 991 1571.00114491 916.011917918 1427 752 1427 c 0
 638 1427 568 1458 507 1487 c 0
 453 1513 407 1534 334 1534 c 0
 278.610445209 1534 245 1487.63982875 245 1364 c 1
 95 1364 l 1
 95 1539.99885509 169.988082082 1684 334 1684 c 0
 449 1684 519 1653 580 1624 c 0
 634 1598 679 1577 752 1577 c 0
 807.389554791 1577 841 1623.36017125 841 1747 c 1
486 -66 m 1
 369 27 l 1
 430.211866765 108.615822354 468 252.253466601 468 634 c 0
 468 872 468 1110 468 1348 c 1
 618 1348 l 1
 618 1110 618 872 618 634 c 0
 618 258.697111099 592.2974189 68.6433972729 486 -66 c 1
EndSplineSet
Ligature2: "'liga' Standard Ligatures in Arabic lookup 4 subtable" uni0627 uni0653
Substitution2: "'fina' Terminal Forms in Arabic lookup 1 subtable" uniFE82
LCarets2: 1 0
Colour: ffff
EndChar

StartChar: uni0647
Encoding: 1607 1607 113
GlifName: uni0647
Width: 1086
VWidth: 1446
Flags: HMW
AnchorPoint: "Anchor-1" 532 -150 basechar 0
AnchorPoint: "Anchor-3" 537 977 basechar 0
LayerCount: 2
Fore
SplineSet
537 669 m 1
 427 529 379 392 379 295 c 0
 379 186 432 125 543 125 c 0
 666 125 707 184 707 281 c 0
 707 384 642 538 537 669 c 1
433 779 m 1
 408.815015798 800.497763735 384.781055398 819.664208451 359 838 c 1
 449 958 l 1
 500.639512075 919.270365944 548.95087207 877.204233775 594 831 c 0
 749 669 857 461 857 281 c 0
 857 115 747 -25 543 -25 c 0
 348 -25 229 117 229 295 c 0
 229 444 300 616 433 779 c 1
EndSplineSet
Substitution2: "'init' Initial Forms in Arabic lookup 3 subtable" uniFEEB
Substitution2: "'medi' Medial Forms in Arabic lookup 2 subtable" uniFEEC
Substitution2: "'fina' Terminal Forms in Arabic lookup 1 subtable" uniFEEA
Colour: ffff
EndChar

StartChar: uniFEB3
Encoding: 65203 65203 114
GlifName: uniF_E_B_3
Width: 1086
VWidth: 1458
Flags: HMW
AnchorPoint: "Anchor-1" 560 -164 basechar 0
AnchorPoint: "Anchor-3" 553 563 basechar 0
LayerCount: 2
Fore
SplineSet
0 125 m 0
 65 125 88 152 100 291 c 0
 105.43359375 355.12109375 106 442.488112939 106 527 c 1
 256 527 l 1
 256 442.132413964 256.564285067 355.228579194 262 290 c 0
 274 152 297 125 362 125 c 0
 427 125 450 152 462 291 c 0
 467.43359375 355.12109375 468 442.488112939 468 527 c 1
 618 527 l 1
 618 442.132413964 618.564285067 355.228579194 624 290 c 0
 636 152 659 125 724 125 c 0
 803 125 847 191 847 311 c 0
 847 432.835529948 790.298601165 564.78195837 738 638 c 1
 861 725 l 1
 933.429172537 621.529753519 997 467.867629375 997 311 c 0
 997 167 929 -25 724 -25 c 0
 648 -25 585 7 543 58 c 1
 501 5 439 -25 362 -25 c 0
 286 -25 223 7 181 58 c 1
 139 5 77 -25 0 -25 c 0
 -41 -25 -75 9 -75 50 c 0
 -75 91 -41 125 0 125 c 0
EndSplineSet
Colour: ffff
EndChar

StartChar: uniFEB4
Encoding: 65204 65204 115
GlifName: uniF_E_B_4
Width: 1086
VWidth: 1458
Flags: HMW
AnchorPoint: "Anchor-1" 546 -177 basechar 0
AnchorPoint: "Anchor-3" 561 523 basechar 0
LayerCount: 2
Fore
SplineSet
0 125 m 0
 65 125 88 152 100 291 c 0
 105.43359375 355.12109375 106 442.488112939 106 527 c 1
 256 527 l 1
 256 442.132413964 256.564285067 355.228579194 262 290 c 0
 274 152 297 125 362 125 c 0
 427 125 450 152 462 291 c 0
 467.43359375 355.12109375 468 442.488112939 468 527 c 1
 618 527 l 1
 618 442.132413964 618.564285067 355.228579194 624 290 c 0
 636 152 659 125 724 125 c 0
 789 125 812 152 824 291 c 0
 829.43359375 355.12109375 830 442.488112939 830 527 c 1
 980 527 l 1
 980 442.132413964 980.564285067 355.228579194 986 290 c 0
 998 152 1021 125 1086 125 c 1
 1086 -25 l 1
 1010 -25 947 7 905 58 c 1
 863 5 801 -25 724 -25 c 0
 648 -25 585 7 543 58 c 1
 501 5 439 -25 362 -25 c 0
 286 -25 223 7 181 58 c 1
 139 5 77 -25 0 -25 c 0
 -41 -25 -75 9 -75 50 c 0
 -75 91 -41 125 0 125 c 0
EndSplineSet
Colour: ffff
EndChar

StartChar: uniFEB2
Encoding: 65202 65202 116
GlifName: uniF_E_B_2
Width: 1086
VWidth: 1321
Flags: HMW
AnchorPoint: "Anchor-1" -55 -655 basechar 0
AnchorPoint: "Anchor-3" 543 609 basechar 0
LayerCount: 2
Fore
SplineSet
232 -19 m 0
 232 38 227 106 213 169 c 0
 192 274 171 379 150 484 c 1
 297 513 l 1
 355 223 l 2
 371 146 381 125 434 125 c 0
 481 125 504 146 516 284 c 0
 521.430664062 349.166992188 522 440.558660518 522 527 c 1
 672 527 l 1
 672 440.688396347 672.578125 349.057617188 678 284 c 0
 690 146 713 125 760 125 c 0
 807 125 830 146 842 284 c 0
 847.430664062 349.166992188 848 440.558660518 848 527 c 1
 998 527 l 1
 998 440.688396347 998.578125 349.057617188 1004 284 c 0
 1016 146 1039 125 1086 125 c 1
 1086 -25 l 1
 1018 -25 960 4 923 50 c 1
 884 2 828 -25 760 -25 c 0
 692 -25 634 4 597 50 c 1
 558 2 502 -25 434 -25 c 0
 416 -25 398 -23 382 -20 c 1
 382 -282 260 -514 -43 -514 c 0
 -366 -514 -472 -254 -472 -4 c 0
 -472 179.602495415 -419.893132925 365.057242841 -366 520 c 1
 -225 469 l 1
 -276.514426584 331.628195776 -322 153.961759423 -322 -4 c 0
 -322 -224 -252 -364 -43 -364 c 0
 155 -364 232 -242 232 -19 c 0
EndSplineSet
Colour: ffff
EndChar

StartChar: uniFE8E
Encoding: 65166 65166 134
GlifName: uniF_E_8E_
Width: 1086
VWidth: 1543
Flags: HMW
AnchorPoint: "Anchor-1" 546 -250 basechar 0
AnchorPoint: "Anchor-3" 400 1436 basechar 0
LayerCount: 2
Fore
SplineSet
1086 125 m 1
 1086 -25 l 1
 682 -25 l 0
 468 -25 325 107 325 369 c 0
 325 1359 l 1
 475 1359 l 1
 475 369 l 0
 475 170 543 125 682 125 c 0
 1086 125 l 1
EndSplineSet
Colour: ffff
EndChar

StartChar: uniFE90
Encoding: 65168 65168 135
GlifName: uniF_E_90
Width: 1086
VWidth: 2313
Flags: HMW
AnchorPoint: "Anchor-1" 150 -532 basechar 0
AnchorPoint: "Anchor-3" 160 547 basechar 0
LayerCount: 2
Fore
SplineSet
-332 699 m 1
 -206 618 l 1
 -238.00672586 569.989911211 -275 478.123741134 -275 407 c 0
 -275 259 -133 125 178 125 c 0
 502.202499271 125 684.093537217 275.0189195 770 522 c 1
 911 479 l 1
 898.281543193 430.245915574 893 407.522549872 893 358 c 0
 893 201 928 125 1086 125 c 1
 1086 -25 l 1
 901 -25 798 74 761 204 c 1
 623 53 420 -25 178 -25 c 0
 -165 -25 -425 137 -425 407 c 0
 -425 510.665339625 -384.996195662 623.291149054 -332 699 c 1
EndSplineSet
Refer: 223 57344 N 1 0 0 1 -345 -450 2
Colour: ffff
EndChar

StartChar: uniFE96
Encoding: 65174 65174 137
GlifName: uniF_E_96
Width: 1086
VWidth: 2313
Flags: HMW
AnchorPoint: "Anchor-1" 187 -172 basechar 0
AnchorPoint: "Anchor-3" 166 689 basechar 0
LayerCount: 2
Fore
SplineSet
-332 699 m 1
 -206 618 l 1
 -238.00672586 569.989911211 -275 478.123741134 -275 407 c 0
 -275 259 -133 125 178 125 c 0
 502.202499271 125 684.093537217 275.0189195 770 522 c 1
 911 479 l 1
 898.281543193 430.245915574 893 407.522549872 893 358 c 0
 893 201 928 125 1086 125 c 1
 1086 -25 l 1
 901 -25 798 74 761 204 c 1
 623 53 420 -25 178 -25 c 0
 -165 -25 -425 137 -425 407 c 0
 -425 510.665339625 -384.996195662 623.291149054 -332 699 c 1
EndSplineSet
Refer: 224 57345 N 1 0 0 1 -323 555 2
Colour: ffff
EndChar

StartChar: uniFE9A
Encoding: 65178 65178 138
GlifName: uniF_E_9A_
Width: 1086
VWidth: 2313
Flags: HMW
AnchorPoint: "Anchor-1" 181 -173 basechar 0
AnchorPoint: "Anchor-3" 194 932 basechar 0
LayerCount: 2
Fore
SplineSet
-332 699 m 1
 -206 618 l 1
 -238.00672586 569.989911211 -275 478.123741134 -275 407 c 0
 -275 259 -133 125 178 125 c 0
 502.202499271 125 684.093537217 275.0189195 770 522 c 1
 911 479 l 1
 898.281543193 430.245915574 893 407.522549872 893 358 c 0
 893 201 928 125 1086 125 c 1
 1086 -25 l 1
 901 -25 798 74 761 204 c 1
 623 53 420 -25 178 -25 c 0
 -165 -25 -425 137 -425 407 c 0
 -425 510.665339625 -384.996195662 623.291149054 -332 699 c 1
EndSplineSet
Refer: 226 57347 N 1 0 0 1 -306 547 2
Colour: ffff
EndChar

StartChar: uniFEA2
Encoding: 65186 65186 142
GlifName: uniF_E_A_2
Width: 1086
VWidth: 1274
Flags: HMW
AnchorPoint: "Anchor-1" 557 -732 basechar 0
AnchorPoint: "Anchor-3" 385 777 basechar 0
LayerCount: 2
Fore
SplineSet
840 424 m 1
 857 217 890 125 1086 125 c 1
 1086 -25 l 1
 784 -25 707 190 690 412 c 1
 840 424 l 1
EndSplineSet
Refer: 94 1581 N 1 0 0 1 0 0 2
Colour: ffff
EndChar

StartChar: uniFEA3
Encoding: 65187 65187 143
GlifName: uniF_E_A_3
Width: 1086
VWidth: 1458
Flags: HMW
AnchorPoint: "Anchor-1" 538 -122 basechar 0
AnchorPoint: "Anchor-3" 380 746 basechar 0
LayerCount: 2
Fore
SplineSet
0 125 m 0
 89 125 l 0
 289 125 425 217 590 336 c 0
 639 371 692 401 742 425 c 1
 712.621636572 441.080788403 675.003283148 465.748054687 635.000003245 492.885341969 c 0
 545.183830019 553.814528308 441.404849949 622 382 622 c 0
 332.893610402 622 265.447315192 572.828824941 209 443 c 1
 71 503 l 1
 145.557123827 674.481384802 254.418907037 772 382 772 c 0
 495 772 591 704 680 640 c 0
 784 566 888 506 986 506 c 0
 1011 506 1036 506 1061 506 c 1
 1061 351 l 1
 1038 350 1015 348 992 346 c 0
 910 340 786 292 678 214 c 0
 513 95 341 -25 89 -25 c 0
 0 -25 l 0
 -41 -25 -75 9 -75 50 c 0
 -75 91 -41 125 0 125 c 0
EndSplineSet
Colour: ffff
EndChar

StartChar: uniFEA4
Encoding: 65188 65188 144
GlifName: uniF_E_A_4
Width: 1086
VWidth: 1393
Flags: HMW
AnchorPoint: "Anchor-1" 538 -122 basechar 0
AnchorPoint: "Anchor-3" 341 787 basechar 0
LayerCount: 2
Fore
SplineSet
816 348 m 0
 832 191 925 125 1086 125 c 1
 1086 -25 l 1
 871 -25 690 92 666 333 c 0
 816 348 l 0
EndSplineSet
Refer: 143 65187 N 1 0 0 1 0 0 2
Colour: ffff
EndChar

StartChar: uniFEAA
Encoding: 65194 65194 148
GlifName: uniF_E_A_A_
Width: 1086
VWidth: 1414
Flags: HMW
AnchorPoint: "Anchor-1" 440 -116 basechar 0
AnchorPoint: "Anchor-3" 634 964 basechar 0
LayerCount: 2
Fore
SplineSet
1086 -25 m 1
 986 -25 908 24 844 130 c 1
 727 14 572 -25 444 -25 c 0
 253.26153992 -25 113 73.1614155118 113 308 c 1
 263 308 l 1
 263 166.517079757 301.238220043 125 444 125 c 0
 561 125 694 169 774 278 c 1
 767 295 761 311 756 327 c 0
 556 897 l 1
 697 948 l 1
 898 377 l 0
 982 137 1031 125 1086 125 c 1
 1086 -25 l 1
EndSplineSet
Colour: ffff
EndChar

StartChar: uniFEAE
Encoding: 65198 65198 150
GlifName: uniF_E_A_E_
Width: 1086
VWidth: 1300
Flags: HMW
AnchorPoint: "Anchor-1" 574 -548 basechar 0
AnchorPoint: "Anchor-3" 551 653 basechar 0
LayerCount: 2
Fore
SplineSet
1086 125 m 1
 1086 -25 l 1
 892 -25 l 0
 693 -25 581 168 540 306 c 1
 684 348 l 1
 719 228 807 125 892 125 c 0
 1086 125 l 1
EndSplineSet
Refer: 82 1585 N 1 0 0 1 -244 0 2
Colour: ffff
EndChar

StartChar: uniFEBA
Encoding: 65210 65210 155
GlifName: uniF_E_B_A_
Width: 1086
VWidth: 1321
Flags: HMW
AnchorPoint: "Anchor-1" -48 -591 basechar 0
AnchorPoint: "Anchor-3" 816 683 basechar 0
LayerCount: 2
Fore
SplineSet
583 -25 m 1
 583 125 l 1
 1111 125 l 1
 1111 -25 l 1
 583 -25 l 1
EndSplineSet
Refer: 89 1589 N 1 0 0 1 56 0 2
Colour: ffff
EndChar

StartChar: uniFEBB
Encoding: 65211 65211 156
GlifName: uniF_E_B_B_
Width: 1086
VWidth: 2204
Flags: HMW
AnchorPoint: "Anchor-1" 553 -132 basechar 0
AnchorPoint: "Anchor-3" 827 696 basechar 0
LayerCount: 2
Fore
SplineSet
0 125 m 0
 97 125 125 130 143 305 c 0
 148.485873539 352.178512435 150 420.046589012 150 487 c 1
 300 487 l 1
 300 428.963503354 302.769368704 372.537840831 312 331 c 1
 428 519 623 692 827 692 c 0
 1047 692 1141 538 1141 380 c 0
 1141 147 872 -25 574 -25 c 0
 461 -25 333 9 249 113 c 1
 198 11 106 -25 0 -25 c 0
 -41 -25 -75 9 -75 50 c 0
 -75 91 -41 125 0 125 c 0
398 175 m 1
 443 140 504 125 574 125 c 0
 836 125 991 277 991 380 c 0
 991 481 960 542 827 542 c 0
 688 542 488 370 398 175 c 1
EndSplineSet
Colour: ffff
EndChar

StartChar: uniFEBC
Encoding: 65212 65212 157
GlifName: uniF_E_B_C_
Width: 1086
VWidth: 1406
Flags: HMW
AnchorPoint: "Anchor-1" 553 -132 basechar 0
AnchorPoint: "Anchor-3" 827 696 basechar 0
LayerCount: 2
Fore
SplineSet
550 -25 m 1
 550 125 l 1
 1111 125 l 1
 1111 -25 l 1
 550 -25 l 1
EndSplineSet
Refer: 156 65211 N 1 0 0 1 0 0 2
Colour: ffff
EndChar

StartChar: uniFEC2
Encoding: 65218 65218 161
GlifName: uniF_E_C_2
Width: 1086
VWidth: 1406
Flags: HMW
AnchorPoint: "Anchor-1" 553 -132 basechar 0
AnchorPoint: "Anchor-3" 701 746 basechar 0
LayerCount: 2
Fore
SplineSet
870 241 m 1
 897 162 940 125 1086 125 c 1
 1086 -25 l 1
 905 -25 779 45 728 193 c 1
 870 241 l 1
EndSplineSet
Refer: 91 1591 N 1 0 0 1 -63 0 2
Colour: ffff
EndChar

StartChar: uniFEC3
Encoding: 65219 65219 162
GlifName: uniF_E_C_3
Width: 1086
VWidth: 2204
Flags: HMW
AnchorPoint: "Anchor-1" 553 -132 basechar 0
AnchorPoint: "Anchor-3" 682 746 basechar 0
LayerCount: 2
Fore
SplineSet
0 125 m 0
 25 125 51 125 77 126 c 1
 94 164 111 200 129 235 c 1
 129 1348 l 1
 279 1348 l 1
 279 474 l 1
 392 620 529 733 684 733 c 0
 877 733 1011 610 1011 413 c 0
 1011 34 381 -25 0 -25 c 0
 -41 -25 -75 9 -75 50 c 0
 -75 91 -41 125 0 125 c 0
248 135 m 1
 596 167 861 273 861 413 c 0
 861 532 808 583 684 583 c 0
 557 583 374 386 248 135 c 1
EndSplineSet
Colour: ffff
EndChar

StartChar: uniFEC4
Encoding: 65220 65220 163
GlifName: uniF_E_C_4
Width: 1086
VWidth: 1406
Flags: HMW
AnchorPoint: "Anchor-1" 553 -132 basechar 0
AnchorPoint: "Anchor-3" 652 795 basechar 0
LayerCount: 2
Fore
SplineSet
876 262 m 0
 905 172 948 125 1086 125 c 1
 1086 -25 l 1
 894 -25 779 71 732 214 c 1
 876 262 l 0
EndSplineSet
Refer: 162 65219 N 1 0 0 1 -43 0 2
Colour: ffff
EndChar

StartChar: uniFECA
Encoding: 65226 65226 167
GlifName: uniF_E_C_A_
Width: 1086
VWidth: 2204
Flags: HMW
AnchorPoint: "Anchor-1" 628 -783 basechar 0
AnchorPoint: "Anchor-3" 485 774 basechar 0
LayerCount: 2
Fore
SplineSet
490 326 m 1
 528 349 l 2
 656 426 696 480 696 511 c 0
 696 580 616 651 483 651 c 0
 400 651 317 621 254 556 c 1
 490 326 l 1
85 583 m 1
 182 731 335 801 483 801 c 0
 652 801 846 704 846 511 c 0
 846 375 722 293 609 223 c 1
 718 141 792 125 930 125 c 0
 1086 125 l 1
 1086 -25 l 1
 930 -25 l 0
 757 -25 626 12 474 138 c 1
 332 41 225 -71 225 -242 c 0
 225 -430 418 -561 690 -561 c 0
 791.242967595 -561 898.871759921 -538.441485248 992 -502 c 1
 1046 -643 l 1
 931.953003217 -682.66852062 809.627304388 -711 690 -711 c 0
 388 -711 75 -556 75 -242 c 0
 75 -11 219 139 362 242 c 1
 92 505 l 1
 85 583 l 1
EndSplineSet
Colour: ffff
EndChar

StartChar: uniFECB
Encoding: 65227 65227 168
GlifName: uniF_E_C_B_
Width: 1086
VWidth: 1458
Flags: HMW
AnchorPoint: "Anchor-1" 539 -150 basechar 0
AnchorPoint: "Anchor-3" 656 864 basechar 0
LayerCount: 2
Fore
SplineSet
0 125 m 0
 212 125 l 0
 304 125 376 135 439 149 c 1
 349 193 275 276 275 403 c 0
 275 610 427 844 662 844 c 0
 822.917584111 844 916.585718773 748.752846821 963 642 c 1
 825 582 l 1
 801.375678366 636.335939758 763.517967554 694 662 694 c 0
 539 694 425 553 425 403 c 0
 425 303 521 252 663 252 c 0
 723.099276917 252 778.309795152 257.146595889 834 264.344250508 c 0
 890.502772998 271.64692512 947.742239566 277 1011 277 c 1
 1011 127 l 1
 874.882389006 127 766.545863768 100.148476125 663 62 c 0
 551 21 419 -25 212 -25 c 0
 0 -25 l 0
 -41 -25 -75 9 -75 50 c 0
 -75 91 -41 125 0 125 c 0
EndSplineSet
Colour: ffff
EndChar

StartChar: uniFECC
Encoding: 65228 65228 169
GlifName: uniF_E_C_C_
Width: 1086
VWidth: 1458
Flags: HMW
AnchorPoint: "Anchor-1" 539 -150 basechar 0
AnchorPoint: "Anchor-3" 568 786 basechar 0
LayerCount: 2
Fore
SplineSet
0 125 m 0
 93 125 l 0
 231 125 372 153 485 199 c 1
 164 512 l 1
 162 587 l 1
 259 735 411 803 559 803 c 0
 728 803 922 706 922 513 c 0
 922 378 848 265 746 181 c 1
 821 136 882 125 992 125 c 0
 1086 125 l 1
 1086 -25 l 1
 992 -25 l 0
 844 -25 732 4 610 93 c 1
 461 17 279 -25 93 -25 c 0
 0 -25 l 0
 -41 -25 -75 9 -75 50 c 0
 -75 91 -41 125 0 125 c 0
623 276 m 1
 722 347 772 428 772 513 c 0
 772 582 692 653 559 653 c 0
 476 653 393 624 330 559 c 1
 567 328 l 2
 586 309 606 291 623 276 c 1
EndSplineSet
Colour: ffff
EndChar

StartChar: uniFED2
Encoding: 65234 65234 173
GlifName: uniF_E_D_2
Width: 1086
VWidth: 2222
Flags: HMW
AnchorPoint: "Anchor-1" 224 -107 basechar 0
AnchorPoint: "Anchor-3" 693 1149 basechar 0
LayerCount: 2
Fore
SplineSet
674 219 m 1
 792 278 860 359 860 451 c 0
 860 600 801 693 691 693 c 0
 586 693 509 615 509 448 c 0
 509 359 568 278 674 219 c 1
671 54 m 1
 538 2 378 -25 232 -25 c 0
 -110 -25 -375 136 -375 407 c 0
 -375 476.446991783 -352.557138306 549.618581895 -325 613 c 1
 -187 553 l 1
 -206.722720133 507.637743693 -225 450.958730978 -225 407 c 0
 -225 259 -80 125 232 125 c 0
 319 125 416 136 501 157 c 1
 415 232 359 331 359 448 c 0
 359 663 481 843 691 843 c 0
 924 843 1010 630 1010 451 c 0
 1010 324 941 223 849 152 c 1
 923 134 1003 125 1086 125 c 1
 1086 -25 l 1
 935 -25 790 3 671 54 c 1
EndSplineSet
Refer: 223 57344 N 1 0 0 1 191 1012 2
Colour: ffff
EndChar

StartChar: uniFED3
Encoding: 65235 65235 174
GlifName: uniF_E_D_3
Width: 1086
VWidth: 2222
Flags: HMW
AnchorPoint: "Anchor-1" 536 -134 basechar 0
AnchorPoint: "Anchor-3" 648 1418 basechar 0
LayerCount: 2
Fore
SplineSet
0 125 m 0
 443 125 l 0
 744 125 802 199 810 396 c 1
 753 381 698 375 634 375 c 0
 510 375 328 422 328 651 c 0
 328 816 420 1105 643 1105 c 0
 918 1105 961 687 961 440 c 0
 961 138 820 -25 443 -25 c 0
 0 -25 l 0
 -41 -25 -75 9 -75 50 c 0
 -75 91 -41 125 0 125 c 0
807 552 m 1
 789 800 710 955 643 955 c 0
 577 955 478 803 478 651 c 0
 478 536 531 525 634 525 c 0
 704 525 756 534 807 552 c 1
EndSplineSet
Refer: 223 57344 N 1 0 0 1 145 1281 2
Colour: ffff
EndChar

StartChar: uniFED4
Encoding: 65236 65236 175
GlifName: uniF_E_D_4
Width: 1086
VWidth: 2222
Flags: HMW
AnchorPoint: "Anchor-1" 536 -134 basechar 0
AnchorPoint: "Anchor-3" 542 1194 basechar 0
LayerCount: 2
Fore
SplineSet
0 125 m 0
 141 125 l 0
 218 125 295 134 367 150 c 1
 278 224 218 326 218 447 c 0
 218 662 340 842 550 842 c 0
 783 842 868 630 868 451 c 0
 868 325 806 222 719 149 c 1
 790 133 866 125 945 125 c 0
 1086 125 l 1
 1086 -25 l 1
 945 -25 l 0
 800 -25 661 1 544 48 c 1
 424 0 280 -25 141 -25 c 0
 0 -25 l 0
 -41 -25 -75 9 -75 50 c 0
 -75 91 -41 125 0 125 c 0
544 212 m 1
 655 270 718 350 718 451 c 0
 718 600 660 692 550 692 c 0
 445 692 368 614 368 447 c 0
 368 355 432 271 544 212 c 1
EndSplineSet
Refer: 223 57344 N 1 0 0 1 40 1051 2
Colour: ffff
EndChar

StartChar: uniFED6
Encoding: 65238 65238 176
GlifName: uniF_E_D_6
Width: 1086
VWidth: 2304
Flags: HMW
AnchorPoint: "Anchor-1" 460 -622 basechar 0
AnchorPoint: "Anchor-3" 714 1035 basechar 0
LayerCount: 2
Fore
SplineSet
870 126 m 1
 854 373 769 581 704 581 c 0
 635 581 539 457 539 251 c 0
 539 156 566 131 870 126 c 1
1020 125 m 1
 1086 125 l 1
 1086 -25 l 1
 1019 -25 l 1
 992 -314 790 -506 469 -506 c 0
 186 -506 -126 -330 -126 18 c 0
 -126 200.231856233 -60.9637970834 385.733038681 21 536 c 1
 153 466 l 1
 81.0139742518 334.025619462 24 168.118055903 24 18 c 0
 24 -220 234 -356 469 -356 c 0
 717 -356 845 -232 869 -24 c 1
 585 -19 389 15 389 251 c 0
 389 466 484 731 704 731 c 0
 957 731 1009 337 1020 125 c 1
EndSplineSet
Refer: 224 57345 N 1 0 0 1 207 897 2
Colour: ffff
EndChar

StartChar: uniFED7
Encoding: 65239 65239 177
GlifName: uniF_E_D_7
Width: 1086
VWidth: 2222
Flags: HMW
AnchorPoint: "Anchor-1" 536 -134 basechar 0
AnchorPoint: "Anchor-3" 617 1405 basechar 0
LayerCount: 2
Fore
SplineSet
0 125 m 0
 443 125 l 0
 744 125 802 199 810 396 c 1
 753 381 698 375 634 375 c 0
 510 375 328 422 328 651 c 0
 328 816 420 1105 643 1105 c 0
 918 1105 961 687 961 440 c 0
 961 138 820 -25 443 -25 c 0
 0 -25 l 0
 -41 -25 -75 9 -75 50 c 0
 -75 91 -41 125 0 125 c 0
807 552 m 1
 789 800 710 955 643 955 c 0
 577 955 478 803 478 651 c 0
 478 536 531 525 634 525 c 0
 704 525 756 534 807 552 c 1
EndSplineSet
Refer: 224 57345 N 1 0 0 1 109 1264 2
Colour: ffff
EndChar

StartChar: uniFED8
Encoding: 65240 65240 178
GlifName: uniF_E_D_8
Width: 1086
VWidth: 2222
Flags: HMW
AnchorPoint: "Anchor-1" 536 -134 basechar 0
AnchorPoint: "Anchor-3" 528 1241 basechar 0
LayerCount: 2
Fore
SplineSet
0 125 m 0
 141 125 l 0
 218 125 295 134 367 150 c 1
 278 224 218 326 218 447 c 0
 218 662 340 842 550 842 c 0
 783 842 868 630 868 451 c 0
 868 325 806 222 719 149 c 1
 790 133 866 125 945 125 c 0
 1086 125 l 1
 1086 -25 l 1
 945 -25 l 0
 800 -25 661 1 544 48 c 1
 424 0 280 -25 141 -25 c 0
 0 -25 l 0
 -41 -25 -75 9 -75 50 c 0
 -75 91 -41 125 0 125 c 0
544 212 m 1
 655 270 718 350 718 451 c 0
 718 600 660 692 550 692 c 0
 445 692 368 614 368 447 c 0
 368 355 432 271 544 212 c 1
EndSplineSet
Refer: 224 57345 N 1 0 0 1 22 1106 2
Colour: ffff
EndChar

StartChar: uniFEDA
Encoding: 65242 65242 179
GlifName: uniF_E_D_A_
Width: 1086
VWidth: 2267
Flags: HMW
AnchorPoint: "Anchor-1" 256 -122 basechar 0
AnchorPoint: "Anchor-3" 242 892 basechar 0
LayerCount: 2
Fore
SplineSet
838 482 m 1
 838 220 858 125 1086 125 c 1
 1086 -25 l 1
 743 -25 688 214 688 482 c 1
 838 482 l 1
EndSplineSet
Refer: 261 1603 N 1 0 0 1 -292 0 2
Colour: ffff
EndChar

StartChar: uniFEDB
Encoding: 65243 65243 180
GlifName: uniF_E_D_B_
Width: 1086
VWidth: 2267
Flags: HMW
AnchorPoint: "Anchor-1" 448 -162 basechar 0
AnchorPoint: "Anchor-3" 508 1185 basechar 0
LayerCount: 2
Fore
SplineSet
0 125 m 0
 250 125 l 0
 507 125 545 186 545 299 c 0
 545 467 415 660 145 863 c 0
 135 870 125 878 115 886 c 1
 115 981 l 1
 890 1342 l 1
 953 1207 l 1
 324 913 l 1
 552 722 695 518 695 299 c 0
 695 82 536 -25 250 -25 c 0
 0 -25 l 0
 -41 -25 -75 9 -75 50 c 0
 -75 91 -41 125 0 125 c 0
EndSplineSet
Colour: ffff
EndChar

StartChar: uniFEDC
Encoding: 65244 65244 181
GlifName: uniF_E_D_C_
Width: 1086
VWidth: 2267
Flags: HMW
AnchorPoint: "Anchor-1" 448 -162 basechar 0
AnchorPoint: "Anchor-3" 508 1185 basechar 0
LayerCount: 2
Fore
SplineSet
1086 125 m 1
 1086 -25 l 1
 1024 -25 l 0
 763 -25 666 167 586 336 c 0
 545 423 493 515 426 597 c 1
 542 691 l 1
 621 595 676 493 721 402 c 0
 809 223 859 125 1024 125 c 0
 1086 125 l 1
EndSplineSet
Refer: 180 65243 N 1 0 0 1 0 0 2
Colour: ffff
EndChar

StartChar: uniFEDE
Encoding: 65246 65246 182
GlifName: uniF_E_D_E_
Width: 1086
VWidth: 1457
Flags: HMW
AnchorPoint: "Anchor-1" 298 -486 basechar 0
AnchorPoint: "Anchor-3" 352 474 basechar 0
LayerCount: 2
Fore
SplineSet
836 374 m 1
 836 162 888 125 1086 125 c 1
 1086 -25 l 1
 831 -25 686 93 686 374 c 1
 836 374 l 1
EndSplineSet
Refer: 87 1604 N 1 0 0 1 -175 0 2
Colour: ffff
EndChar

StartChar: uniFEDF
Encoding: 65247 65247 183
GlifName: uniF_E_D_F_
Width: 1086
VWidth: 1543
Flags: HMW
AnchorPoint: "Anchor-1" 448 -223 basechar 0
AnchorPoint: "Anchor-3" 592 1372 basechar 0
LayerCount: 2
Fore
SplineSet
0 125 m 0
 313 125 l 0
 505 125 521 225 521 536 c 0
 521 1348 l 1
 671 1348 l 1
 671 536 l 0
 671 249 646 -25 313 -25 c 0
 0 -25 l 0
 -41 -25 -75 9 -75 50 c 0
 -75 91 -41 125 0 125 c 0
EndSplineSet
Colour: ffff
EndChar

StartChar: uniFEE0
Encoding: 65248 65248 184
GlifName: uniF_E_E_0
Width: 1086
VWidth: 1543
Flags: HMW
AnchorPoint: "Anchor-1" 460 -204 basechar 0
AnchorPoint: "Anchor-3" 466 1400 basechar 0
LayerCount: 2
Fore
SplineSet
1086 125 m 1
 1086 -25 l 1
 879 -25 l 0
 546 -25 521 254 521 541 c 1
 671 541 l 1
 671 230 687 125 879 125 c 0
 1086 125 l 1
EndSplineSet
Refer: 183 65247 N 1 0 0 1 0 0 2
Colour: ffff
EndChar

StartChar: uniFEE2
Encoding: 65250 65250 185
GlifName: uniF_E_E_2
Width: 1086
VWidth: 1282
Flags: HMW
AnchorPoint: "Anchor-1" 590 -259 basechar 0
AnchorPoint: "Anchor-3" 587 673 basechar 0
LayerCount: 2
Fore
SplineSet
919 327 m 0
 931 150 933 125 1086 125 c 1
 1086 -25 l 1
 831 -25 781 128 769 317 c 1
 919 327 l 0
EndSplineSet
Refer: 88 1605 N 1 0 0 1 -93 0 2
Colour: ffff
EndChar

StartChar: uniFEE4
Encoding: 65252 65252 186
GlifName: uniF_E_E_4
Width: 1086
VWidth: 1371
Flags: HMW
AnchorPoint: "Anchor-1" 577 -191 basechar 0
AnchorPoint: "Anchor-3" 575 762 basechar 0
LayerCount: 2
Fore
SplineSet
0 125 m 0
 132 125 199 272 248 404 c 0
 299 541 392 691 581 691 c 0
 782 691 880 482 891 331 c 0
 903 166 919 125 1086 125 c 1
 1086 -25 l 1
 960 -25 874 11 820 76 c 1
 762 6 677 -25 589 -25 c 0
 468 -25 354 22 265 110 c 1
 204 35 118 -25 0 -25 c 0
 -41 -25 -75 9 -75 50 c 0
 -75 91 -41 125 0 125 c 0
742 299 m 0
 742 424 658 541 581 541 c 0
 488 541 435 477 388 352 c 0
 376 318 361 280 345 245 c 1
 412 163 496 125 589 125 c 0
 677 125 742 161 742 299 c 0
EndSplineSet
Colour: ffff
EndChar

StartChar: uniFEE6
Encoding: 65254 65254 187
GlifName: uniF_E_E_6
Width: 1086
VWidth: 2320
Flags: HMW
AnchorPoint: "Anchor-1" 434 -634 basechar 0
AnchorPoint: "Anchor-3" 428 264 basechar 0
LayerCount: 2
Fore
SplineSet
971 239 m 1
 1006 139 1030 125 1086 125 c 1
 1086 -25 l 1
 952 -25 873 64 829 191 c 0
 971 239 l 1
EndSplineSet
Refer: 223 57344 N 1 0 0 1 -73 131 2
Refer: 85 1722 N 1 0 0 1 -108 0 2
Colour: ffff
EndChar

StartChar: uniFEEA
Encoding: 65258 65258 188
GlifName: uniF_E_E_A_
Width: 1086
VWidth: 1453
Flags: HMW
AnchorPoint: "Anchor-1" 455 -163 basechar 0
AnchorPoint: "Anchor-3" 448 900 basechar 0
LayerCount: 2
Fore
SplineSet
986 -25 m 0
 815 -25 701 47 644 170 c 1
 590 156 527 147 467 147 c 0
 318 147 100 200 100 435 c 0
 100 638 308 786 527 852 c 1
 508 990 l 1
 657 1011 l 1
 745 374 l 0
 759 274 782 212 817 177 c 0
 847 147 895 125 986 125 c 0
 1086 125 l 1
 1086 -25 l 1
 986 -25 l 0
548 701 m 1
 363 638 250 521 250 435 c 0
 250 332 327 297 467 297 c 0
 510 297 561 304 601 314 c 1
 548 701 l 1
EndSplineSet
Colour: ffff
EndChar

StartChar: uniFEEB
Encoding: 65259 65259 189
GlifName: uniF_E_E_B_
Width: 1086
VWidth: 2405
Flags: HMW
AnchorPoint: "Anchor-1" 531 -185 basechar 0
AnchorPoint: "Anchor-3" 507 888 basechar 0
LayerCount: 2
Fore
SplineSet
0 125 m 0
 70 125 134 130 188 138 c 1
 106 205 44 294 44 402 c 0
 44 521 94 618 167 680 c 1
 54 714 l 1
 99 858 l 1
 574 713 l 0
 764 655 1011 547 1011 300 c 0
 1011 69 826 -25 647 -25 c 0
 557 -25 459 -3 379 28 c 1
 274 -8 152 -25 0 -25 c 0
 -41 -25 -75 9 -75 50 c 0
 -75 91 -41 125 0 125 c 0
560 133 m 1
 591 128 619 125 647 125 c 0
 784 125 861 174 861 300 c 0
 861 397 782 469 650 526 c 1
 662 481 669 435 669 382 c 0
 669 287 630 199 560 133 c 1
380 191 m 1
 475 237 519 303 519 382 c 0
 519 530 460 589 411 603 c 0
 399 606 390 607 380 607 c 0
 285 607 194 540 194 402 c 0
 194 335 269 247 380 191 c 1
EndSplineSet
Colour: ffff
EndChar

StartChar: uniFEEC
Encoding: 65260 65260 190
GlifName: uniF_E_E_C_
Width: 1086
VWidth: 1344
Flags: HMW
AnchorPoint: "Anchor-1" 617 -658 basechar 0
AnchorPoint: "Anchor-3" 618 808 basechar 0
LayerCount: 2
Fore
SplineSet
0 125 m 0
 160 125 l 0
 181 125 202 126 221 127 c 1
 220 148 219 169 219 190 c 0
 219 441 342 754 618 754 c 0
 765 754 851 652 851 505 c 0
 851 319 697 85 395 4 c 1
 424 -95 477 -186 557 -260 c 1
 559 -78 712 125 926 125 c 0
 1086 125 l 1
 1086 -25 l 1
 926 -25 l 2
 804 -25 697 -157 697 -268 c 0
 697 -320 721 -368 779 -394 c 1
 720 -532 l 1
 464 -421 306 -248 246 -21 c 1
 217 -24 189 -25 160 -25 c 0
 0 -25 l 0
 -41 -25 -75 9 -75 50 c 0
 -75 91 -41 125 0 125 c 0
370 153 m 1
 606 223 701 401 701 505 c 0
 701 593 685 604 618 604 c 0
 484 604 369 423 369 190 c 0
 369 178 369 164 370 153 c 1
EndSplineSet
Colour: ffff
EndChar

StartChar: uniFEEE
Encoding: 65262 65262 191
GlifName: uniF_E_E_E_
Width: 1086
VWidth: 1338
Flags: HMW
AnchorPoint: "Anchor-1" 518 -553 basechar 0
AnchorPoint: "Anchor-3" 536 746 basechar 0
LayerCount: 2
Fore
SplineSet
682 126 m 1
 666 366 583 554 516 554 c 0
 442 554 351 446 351 251 c 0
 351 155 383 131 682 126 c 1
1086 125 m 1
 1086 -25 l 1
 827 -25 l 1
 777.271438807 -266.23642451 498.072097611 -479.634232191 131 -509 c 1
 119 -359 l 1
 412.739128626 -335.50086971 618.650327082 -172.161330403 672 -23 c 1
 400 -17 201 15 201 251 c 0
 201 464 301 704 516 704 c 0
 767 704 820 333 832 125 c 1
 1086 125 l 1
EndSplineSet
Colour: ffff
EndChar

StartChar: uni06CC
Encoding: 1740 1740 201
GlifName: uni06C_C_
Width: 1086
VWidth: 2301
Flags: HMW
AnchorPoint: "Anchor-3" 317 765 basechar 0
AnchorPoint: "Anchor-1" 532 -569 basechar 0
LayerCount: 2
Fore
SplineSet
1035 703 m 1
 928 598 l 1
 884.916130419 638.690321271 840.797488458 670 782 670 c 0
 653 670 518 565 518 406 c 0
 518 262 613 241 767 211 c 0
 871.947265625 190.555664062 1061 153 1061 -42 c 0
 1061 -345 779 -463 558 -463 c 0
 275 -463 -30 -279 -30 81 c 0
 -30 234.579826031 7.30933071403 371.911460642 63 500 c 1
 201 440 l 1
 153.184850678 330.02515656 120 214.349175998 120 81 c 0
 120 -175 329 -313 558 -313 c 0
 740 -313 911 -225 911 -42 c 0
 911 12 883 42 747 61 c 0
 604 81 368 125 368 406 c 0
 368 657 579 820 782 820 c 0
 876.889716159 820 966.188298822 775.859448307 1035 703 c 1
EndSplineSet
Substitution2: "'init' Initial Forms in Arabic lookup 3 subtable" uniFBFE
Substitution2: "'medi' Medial Forms in Arabic lookup 2 subtable" uniFBFF
Substitution2: "'fina' Terminal Forms in Arabic lookup 1 subtable" uniFBFD
Colour: ffff
EndChar

StartChar: uniFBFD
Encoding: 64509 64509 202
GlifName: uniF_B_F_D_
Width: 1086
VWidth: 1263
Flags: HMW
AnchorPoint: "Anchor-1" 511 -646 basechar 0
AnchorPoint: "Anchor-3" 567 387 basechar 0
LayerCount: 2
Fore
SplineSet
1086 125 m 1
 1086 -25 l 1
 1024 -25 l 1
 1045 -62 1054 -100 1054 -144 c 0
 1054 -364 847 -549 522 -549 c 0
 195 -549 -55 -350 -55 -31 c 0
 -55 132.131790806 8.41040971706 323.615614576 122 494 c 1
 248 412 l 1
 148.851209135 263.276813703 95 97.597027937 95 -31 c 0
 95 -254 255 -399 522 -399 c 0
 795 -399 904 -256 904 -144 c 0
 904 -64.3372279447 817.319463382 -25 556 -25 c 1
 557 125 l 1
 1086 125 l 1
EndSplineSet
Colour: ffff
EndChar

StartChar: uniFB8F
Encoding: 64399 64399 205
GlifName: uniF_B_8F_
Width: 1086
VWidth: 1500
Flags: HMW
AnchorPoint: "Anchor-3" 523 1214 basechar 0
AnchorPoint: "Anchor-1" 243 -93 basechar 0
LayerCount: 2
Fore
SplineSet
1086 -25 m 1
 852 -25 760 203 697 362 c 0
 667 437 618 520 561 599 c 1
 683 689 l 0
 747 601 797 507 835 421 c 0
 912 241 975 125 1086 125 c 1
 1086 -25 l 1
EndSplineSet
Refer: 92 1705 N 1 0 0 1 -231 0 2
Colour: ffff
EndChar

StartChar: uniFB93
Encoding: 64403 64403 208
GlifName: uniF_B_93
Width: 1086
VWidth: 2267
Flags: HMW
AnchorPoint: "Anchor-3" 528 1490 basechar 0
AnchorPoint: "Anchor-1" 243 -93 basechar 0
LayerCount: 2
Fore
SplineSet
923 1479 m 1
 949 1385 l 1
 229 1045 l 1
 203 1139 l 1
 923 1479 l 1
EndSplineSet
Refer: 205 64399 N 1 0 0 1 0 0 2
Colour: ffff
EndChar

StartChar: uniFB94
Encoding: 64404 64404 209
GlifName: uniF_B_94
Width: 1086
VWidth: 2267
Flags: HMW
AnchorPoint: "Anchor-3" 378 1490 basechar 0
AnchorPoint: "Anchor-1" 448 -162 basechar 0
LayerCount: 2
Fore
SplineSet
795 1479 m 1
 821 1385 l 1
 101 1045 l 1
 75 1139 l 1
 795 1479 l 1
EndSplineSet
Refer: 180 65243 N 1 0 0 1 0 0 2
Colour: ffff
EndChar

StartChar: uniFB95
Encoding: 64405 64405 210
GlifName: uniF_B_95
Width: 1086
VWidth: 2267
Flags: HMW
AnchorPoint: "Anchor-3" 378 1490 basechar 0
AnchorPoint: "Anchor-1" 448 -162 basechar 0
LayerCount: 2
Fore
SplineSet
795 1479 m 1
 821 1385 l 1
 101 1045 l 1
 75 1139 l 1
 795 1479 l 1
EndSplineSet
Refer: 181 65244 N 1 0 0 1 0 0 2
Colour: ffff
EndChar

StartChar: uniFB57
Encoding: 64343 64343 215
GlifName: uniF_B_57
Width: 1086
VWidth: 2313
Flags: HMW
AnchorPoint: "Anchor-1" 109 -751 basechar 0
AnchorPoint: "Anchor-3" 153 531 basechar 0
LayerCount: 2
Fore
SplineSet
-332 699 m 1
 -206 618 l 1
 -238.00672586 569.989911211 -275 478.123741134 -275 407 c 0
 -275 259 -133 125 178 125 c 0
 502.202499271 125 684.093537217 275.0189195 770 522 c 1
 911 479 l 1
 898.281543193 430.245915574 893 407.522549872 893 358 c 0
 893 201 928 125 1086 125 c 1
 1086 -25 l 1
 901 -25 798 74 761 204 c 1
 623 53 420 -25 178 -25 c 0
 -165 -25 -425 137 -425 407 c 0
 -425 510.665339625 -384.996195662 623.291149054 -332 699 c 1
EndSplineSet
Refer: 225 57346 N 1 0 0 1 -382 -682 2
Colour: ffff
EndChar

StartChar: uniFBE8
Encoding: 64488 64488 218
GlifName: uniF_B_E_8
Width: 1086
VWidth: 1458
Flags: HMW
AnchorPoint: "Anchor-1" 559 -143 basechar 0
AnchorPoint: "Anchor-3" 540 827 basechar 0
LayerCount: 2
Fore
SplineSet
0 125 m 0
 542 125 l 0
 690 125 786 184 786 361 c 0
 786 449.723367378 747.68856554 600.747442703 683 756 c 1
 821 813 l 1
 894.136447992 644.786169619 936 478.519026066 936 361 c 0
 936 94 747 -25 542 -25 c 0
 0 -25 l 0
 -41 -25 -75 9 -75 50 c 0
 -75 91 -41 125 0 125 c 0
EndSplineSet
Colour: ffff
EndChar

StartChar: uniFBE9
Encoding: 64489 64489 219
GlifName: uniF_B_E_9
Width: 1086
VWidth: 1458
Flags: HMW
AnchorPoint: "Anchor-1" 559 -143 basechar 0
AnchorPoint: "Anchor-3" 362 634 basechar 0
LayerCount: 2
Fore
SplineSet
0 125 m 0
 225 125 l 0
 372 125 488 229 488 423 c 0
 488 459.478030315 482.242050794 507.547695236 474 545 c 1
 621 572 l 1
 632.952076553 505.030032545 646.038118837 432.19729962 658 380 c 0
 707 157 735 125 861 125 c 0
 1086 125 l 1
 1086 -25 l 1
 861 -25 l 0
 715 -25 622 42 568 161 c 1
 493 42 366 -25 225 -25 c 0
 0 -25 l 0
 -41 -25 -75 9 -75 50 c 0
 -75 91 -41 125 0 125 c 0
EndSplineSet
Colour: ffff
EndChar

StartChar: uni06AF
Encoding: 1711 1711 220
GlifName: uni06A_F_
Width: 1086
VWidth: 2267
Flags: HMW
AnchorPoint: "Anchor-1" 478 -92 basechar 0
AnchorPoint: "Anchor-3" 808 1490 basechar 0
LayerCount: 2
Fore
SplineSet
1163.45996094 1479.48046875 m 1
 1189.41992188 1384.56152344 l 1
 468.540039062 1044.51953125 l 1
 442.580078125 1139.43847656 l 1
 1163.45996094 1479.48046875 l 1
EndSplineSet
Refer: 92 1705 N 1 0 0 1 0 0 2
Substitution2: "'init' Initial Forms in Arabic lookup 3 subtable" uniFB94
Substitution2: "'medi' Medial Forms in Arabic lookup 2 subtable" uniFB95
Substitution2: "'fina' Terminal Forms in Arabic lookup 1 subtable" uniFB93
Colour: ffff
EndChar

StartChar: uniFEE3
Encoding: 65251 65251 222
GlifName: uniF_E_E_3
Width: 1086
VWidth: 1453
Flags: HMW
AnchorPoint: "Anchor-1" 708 -156 basechar 0
AnchorPoint: "Anchor-3" 701 746 basechar 0
LayerCount: 2
Fore
SplineSet
0 125 m 0
 119 125 l 0
 251 125 318 272 367 404 c 0
 418 541 511 691 700 691 c 0
 914 691 1011 452 1011 299 c 0
 1011 82 865 -25 708 -25 c 0
 587 -25 473 22 384 110 c 1
 323 35 237 -25 119 -25 c 0
 0 -25 l 0
 -41 -25 -75 9 -75 50 c 0
 -75 91 -41 125 0 125 c 0
464 245 m 1
 531 163 615 125 708 125 c 0
 796 125 861 161 861 299 c 0
 861 419 779 541 700 541 c 0
 607 541 554 477 507 352 c 0
 495 318 480 280 464 245 c 1
EndSplineSet
Colour: ffff
EndChar

StartChar: uniE000
Encoding: 57344 57344 223
GlifName: uniE_000
Width: 1086
VWidth: 1850
Flags: HMW
LayerCount: 2
Fore
SplineSet
387 136 m 1
 502 251 l 1
 617 136 l 1
 502 22 l 1
 387 136 l 1
EndSplineSet
Colour: ffff00
EndChar

StartChar: uni064E
Encoding: 1614 1614 230
GlifName: uni064E_
Width: 1086
VWidth: -1189
Flags: HMW
AnchorPoint: "Anchor-5" 210 1399 basemark 0
AnchorPoint: "Anchor-5" 210 1038 mark 0
AnchorPoint: "Anchor-2" 210 1038 mark 0
AnchorPoint: "Anchor-3" 210 1038 mark 0
LayerCount: 2
Fore
SplineSet
40 1290 m 1
 6 1384 l 1
 402 1524 l 1
 436 1430 l 1
 40 1290 l 1
EndSplineSet
Colour: ffff00
EndChar

StartChar: uni064F
Encoding: 1615 1615 234
GlifName: uni064F_
Width: 1086
VWidth: 2308
Flags: HMW
AnchorPoint: "Anchor-5" 173 1551 basemark 0
AnchorPoint: "Anchor-5" 164 967 mark 0
AnchorPoint: "Anchor-2" 164 967 mark 0
AnchorPoint: "Anchor-3" 164 967 mark 0
LayerCount: 2
Fore
SplineSet
220 1471 m 1
 222 1483 222 1493 222 1506 c 0
 222 1598 205 1629 191 1629 c 0
 156 1629 119 1579 119 1525 c 0
 119 1510 145 1485 220 1471 c 1
290 1363 m 1
 232 1254 114 1223 -26 1214 c 1
 -32 1314 l 1
 68 1321 140 1341 178 1377 c 1
 109 1393 19 1430 19 1525 c 0
 19 1605 70 1729 191 1729 c 0
 322 1729 322 1564 322 1506 c 0
 322 1491 321 1475 319 1461 c 1
 331 1461 343 1461 355 1461 c 1
 355 1361 l 1
 332.40361938 1361 314.173439313 1361.65703115 290 1363 c 1
EndSplineSet
Colour: ffff00
EndChar

StartChar: uni0651
Encoding: 1617 1617 235
GlifName: uni0651
Width: 1086
VWidth: 2313
Flags: HMW
AnchorPoint: "Anchor-5" 242 1359 basemark 0
AnchorPoint: "Anchor-5" 242 962 mark 0
AnchorPoint: "Anchor-2" 242 962 mark 0
AnchorPoint: "Anchor-3" 242 962 mark 0
LayerCount: 2
Fore
SplineSet
135 1510 m 1
 111 1479 82 1424 82 1386 c 0
 82 1357 93 1349 122 1349 c 0
 155 1349 192 1391 192 1460 c 2
 192 1475 l 1
 292 1475 l 1
 292 1460 l 2
 292 1392 329 1348 360 1348 c 0
 391 1348 404 1353 404 1399 c 0
 404 1454 379 1521 361 1559 c 1
 452 1602 l 1
 476 1551 504 1477 504 1399 c 0
 504 1302 436 1248 360 1248 c 0
 313 1248 271 1272 242 1307 c 1
 210 1270 169 1249 122 1249 c 0
 54 1249 -18 1294 -18 1386 c 0
 -18 1456 18 1524 57 1573 c 1
 135 1510 l 1
EndSplineSet
Colour: ffff00
EndChar

StartChar: uni0670
Encoding: 1648 1648 236
GlifName: uni0670
Width: 1086
VWidth: 1850
Flags: HMW
AnchorPoint: "Anchor-5" 206 1434 basemark 0
AnchorPoint: "Anchor-5" 206 933 mark 0
AnchorPoint: "Anchor-2" 206 933 mark 0
AnchorPoint: "Anchor-3" 206 933 mark 0
LayerCount: 2
Fore
SplineSet
156 1430 m 0
 156 1493 151 1564 145 1637 c 1
 245 1643 l 1
 251 1569 256 1498 256 1430 c 0
 256 1357 244 1281 221 1210 c 1
 126 1241 l 1
 145 1300 156 1365 156 1430 c 0
EndSplineSet
Colour: ffff00
EndChar

StartChar: uni064C
Encoding: 1612 1612 237
GlifName: uni064C_
Width: 1086
VWidth: 2308
Flags: HMW
AnchorPoint: "Anchor-5" 184 1525 basemark 0
AnchorPoint: "Anchor-5" 178 946 mark 0
AnchorPoint: "Anchor-2" 178 946 mark 0
AnchorPoint: "Anchor-3" 178 946 mark 0
LayerCount: 2
Fore
SplineSet
-56 1406 m 1
 -93 1460 -118 1523 -118 1592 c 0
 -118 1764.82316612 7.11820731089 1934 208 1934 c 1
 208 1834 l 1
 78.5509967397 1834 -38 1724.90917969 -38 1592 c 0
 -38 1543 -29 1470 -3 1433 c 1
 -56 1406 l 1
EndSplineSet
Refer: 234 1615 N 1 0 0 1 0 0 2
Colour: ffff00
EndChar

StartChar: uni0652
Encoding: 1618 1618 238
GlifName: uni0652
Width: 1086
VWidth: 2308
Flags: HMW
AnchorPoint: "Anchor-5" 171 1462 basemark 0
AnchorPoint: "Anchor-5" 184 1044 mark 0
AnchorPoint: "Anchor-2" 184 1044 mark 0
AnchorPoint: "Anchor-3" 184 1044 mark 0
LayerCount: 2
Fore
SplineSet
179 1646 m 0
 284 1646 352 1560 352 1473 c 0
 352 1366 274 1283 177 1283 c 0
 76 1283 3 1367 3 1456 c 0
 3 1561 84 1646 179 1646 c 0
179 1546 m 0
 144 1546 103 1513 103 1456 c 0
 103 1419 134 1383 177 1383 c 0
 214 1383 252 1414 252 1473 c 0
 252 1512 224 1546 179 1546 c 0
EndSplineSet
Colour: ffff00
EndChar

StartChar: uni0653
Encoding: 1619 1619 239
GlifName: uni0653
Width: 1086
VWidth: 1850
Flags: HMW
AnchorPoint: "Anchor-5" 319 1346 basemark 0
AnchorPoint: "Anchor-5" 312 954 mark 0
AnchorPoint: "Anchor-2" 312 954 mark 0
AnchorPoint: "Anchor-3" 312 954 mark 0
LayerCount: 2
Fore
SplineSet
209 1336 m 0
 162 1336 123 1295 94 1246 c 1
 9 1298 l 1
 48 1366 109 1436 209 1436 c 0
 270 1436 310 1410 339 1390 c 0
 366 1371 378 1364 412 1364 c 0
 454 1364 489 1417 511 1464 c 1
 602 1421 l 1
 576 1367 525 1264 412 1264 c 0
 353 1264 312 1287 283 1308 c 0
 253 1329 243 1336 209 1336 c 0
EndSplineSet
Colour: ffff00
EndChar

StartChar: uni0654
Encoding: 1620 1620 240
GlifName: uni0654
Width: 1086
VWidth: 2314
Flags: HMW
AnchorPoint: "Anchor-5" 238 1519 basemark 0
AnchorPoint: "Anchor-5" 238 965 mark 0
AnchorPoint: "Anchor-2" 238 965 mark 0
AnchorPoint: "Anchor-3" 238 965 mark 0
LayerCount: 2
Fore
SplineSet
233 1403 m 0
 263 1403 321 1415 402 1442 c 1
 434 1348 l 1
 38 1210 l 1
 6 1304 l 1
 98 1336 l 1
 44 1370 19 1426 19 1482 c 0
 19 1607 119 1705 230 1705 c 0
 308 1705 358 1659 392 1612 c 1
 312 1554 l 1
 294 1579 268 1605 230 1605 c 0
 179 1605 119 1553 119 1482 c 0
 119 1442 134 1403 233 1403 c 0
EndSplineSet
Colour: ffff00
EndChar

StartChar: uni0615
Encoding: 1557 1557 244
GlifName: uni0615
Width: 1086
VWidth: 2204
Flags: HMW
AnchorPoint: "Anchor-5" 251 1377 basemark 0
AnchorPoint: "Anchor-5" 259 852 mark 0
AnchorPoint: "Anchor-2" 259 852 mark 0
AnchorPoint: "Anchor-3" 259 852 mark 0
LayerCount: 2
Fore
SplineSet
153 1478 m 0
 153 1557 144 1646 132 1726 c 1
 232 1740 l 1
 245 1654 253 1562 253 1478 c 2
 253 1435 l 1
 293 1470 340 1497 394 1497 c 0
 488 1497 546 1433 546 1358 c 0
 546 1194 315 1157 169 1157 c 0
 110 1157 54 1164 5 1176 c 1
 29 1273 l 1
 56 1266 87 1261 122 1259 c 1
 142 1310 153 1388 153 1478 c 0
240 1260 m 1
 373 1274 446 1323 446 1358 c 0
 446 1380 440 1397 394 1397 c 0
 355 1397 287 1334 240 1260 c 1
EndSplineSet
Colour: ffff00
EndChar

StartChar: uni0643
Encoding: 1603 1603 261
GlifName: uni0643
Width: 1086
VWidth: 1500
Flags: HMW
AnchorPoint: "Anchor-1" 553 -121 basechar 0
AnchorPoint: "Anchor-3" 522 908 basechar 0
LayerCount: 2
Fore
SplineSet
1066 1284 m 0
 1110 974 1130 752 1130 482 c 0
 1130 165 996 -25 550 -25 c 0
 156 -25 -44 117 -44 386 c 0
 -44 468.165171576 -23.7403879451 573.51922411 27 675 c 1
 162 612 l 1
 122.950946754 526.092082859 106 456.28671645 106 386 c 0
 106 226 183 125 550 125 c 0
 936 125 980 228 980 482 c 0
 980 746 962 956 918 1262 c 0
 1066 1284 l 0
EndSplineSet
Refer: 240 1620 N 1 0 0 1 300 -584 2
Substitution2: "'init' Initial Forms in Arabic lookup 3 subtable" uniFEDB
Substitution2: "'medi' Medial Forms in Arabic lookup 2 subtable" uniFEDC
Substitution2: "'fina' Terminal Forms in Arabic lookup 1 subtable" uniFEDA
Colour: ffff
EndChar

StartChar: uni065A
Encoding: 1626 1626 265
GlifName: uni065A_
Width: 1086
VWidth: -370
Flags: HMW
AnchorPoint: "Anchor-5" 244 1389 basemark 0
AnchorPoint: "Anchor-5" 244 861 mark 0
AnchorPoint: "Anchor-2" 244 861 mark 0
AnchorPoint: "Anchor-3" 244 861 mark 0
LayerCount: 2
Fore
SplineSet
423 1561 m 1
 494 1490 l 1
 366.629664485 1371.89263093 297 1157.64999661 297 1032 c 1
 197 1032 l 1
 197 1157.64275172 127.407065622 1371.85222782 -0 1490 c 1
 71 1561 l 1
 147 1465 207 1379 247 1272 c 1
 287 1380 347 1465 423 1561 c 1
EndSplineSet
Colour: ffff00
EndChar

StartChar: uni0621
Encoding: 1569 1569 266
GlifName: uni0621
Width: 1086
VWidth: 2314
Flags: HMW
AnchorPoint: "Anchor-1" 573 41 basechar 0
AnchorPoint: "Anchor-3" 655 730 basechar 0
LayerCount: 2
Fore
SplineSet
528 325 m 0
 584.982136017 325 634.029239043 330.795707033 684 338.691313717 c 0
 735.312943738 346.798991363 787.903326594 353 851 353 c 1
 865 199 l 1
 657.111907736 161.202165043 452.84734594 87.8982306268 279 -28 c 1
 195 96 l 1
 252.661223592 134.440815728 313.411082049 172.346076542 375 202 c 1
 273 244 221 333 221 430 c 0
 221 595 337 800 546 800 c 0
 664 800 797 728 797 588 c 2
 797 563 l 1
 647 563 l 1
 647 588 l 2
 647 612 619 650 546 650 c 0
 451 650 371 544 371 430 c 0
 371 373 388 325 528 325 c 0
EndSplineSet
Colour: ffff
EndChar

StartChar: uni0640
Encoding: 1600 1600 267
GlifName: uni0640
Width: 1086
VWidth: 1458
Flags: HMW
AnchorPoint: "Anchor-1" 531 -149 basechar 0
AnchorPoint: "Anchor-3" 531 477 basechar 0
LayerCount: 2
Fore
SplineSet
0 125 m 0
 1086 125 l 1
 1086 -25 l 1
 0 -25 l 0
 -41 -25 -75 9 -75 50 c 0
 -75 91 -41 125 0 125 c 0
EndSplineSet
Colour: ffff
EndChar

StartChar: uni0660
Encoding: 1632 1632 275
GlifName: uni0660
Width: 1086
VWidth: 2734
Flags: HMW
LayerCount: 2
Fore
SplineSet
85 473 m 0
 85 621 204 740 352 740 c 0
 499 740 620 621 620 473 c 0
 620 325 499 206 352 206 c 0
 204 206 85 325 85 473 c 0
235 473 m 0
 235 409 288 356 352 356 c 0
 417 356 470 409 470 473 c 0
 470 537 417 590 352 590 c 0
 288 590 235 537 235 473 c 0
EndSplineSet
Colour: ffff
EndChar

StartChar: uni0661
Encoding: 1633 1633 276
GlifName: uni0661
Width: 1086
VWidth: 1850
Flags: HMW
LayerCount: 2
Fore
SplineSet
360 1274 m 1
 503 1319 l 1
 649.572645149 879.282064552 703.078111634 525.047209159 723 27 c 1
 573 24 l 1
 552.585283277 513.953201362 494.161350606 833.184133723 360 1274 c 1
EndSplineSet
Colour: ffff
EndChar

StartChar: uni0662
Encoding: 1634 1634 277
GlifName: uni0662
Width: 1086
VWidth: 1850
Flags: HMW
LayerCount: 2
Fore
SplineSet
124 1279 m 1
 265 1331 l 1
 364 1044 l 2
 418 887 503 861 589 861 c 0
 689.092834717 861 808 967.334808454 808 1298 c 1
 958 1298 l 1
 958 932.585800968 812.939581669 711 589 711 c 0
 542 711 493 719 449 737 c 1
 498.513573105 527.598847075 530.432347828 308.095652152 551 51 c 1
 402 40 l 1
 363.093522139 526.330973267 284.721133421 850.410310878 124 1279 c 1
EndSplineSet
Colour: ffff
EndChar

StartChar: uni0663
Encoding: 1635 1635 278
GlifName: uni0663
Width: 1086
VWidth: 1850
Flags: HMW
LayerCount: 2
Fore
SplineSet
77 1259 m 1
 218 1311 l 1
 245.149702648 1232.94460489 271.715820312 1154.95703125 296 1081 c 0
 341 947 389 837 439 837 c 0
 458 837 505 857 527 958 c 0
 534 989 541 1024 541 1066 c 2
 541 1297 l 1
 681 1297 l 1
 681 1066 l 2
 681 1022 687 982 693 952 c 0
 713 849 748 839 782 839 c 0
 814 839 861 895 861 1048 c 0
 861 1136.35544977 843.188981986 1220.43305404 822 1284 c 1
 964 1332 l 1
 991.343563063 1249.96931081 1011 1150.15445799 1011 1048 c 0
 1011 907 973 689 782 689 c 0
 713 689 650 721 607 778 c 1
 565 723 508 687 439 687 c 0
 429 687 417 688 409 689 c 1
 454.392193308 487.830052386 484.330903307 276.863708664 504 31 c 1
 355 20 l 1
 316.093522139 506.330973267 237.721133421 830.410310878 77 1259 c 1
EndSplineSet
Colour: ffff
EndChar

StartChar: uni0664
Encoding: 1636 1636 279
GlifName: uni0664
Width: 1086
VWidth: 1850
Flags: HMW
LayerCount: 2
Fore
SplineSet
598 674 m 1
 455 597 251 414 251 284 c 0
 251 187 359 125 552 125 c 0
 692.854297488 125 817.048493263 163.60144821 892 210 c 1
 970 82 l 1
 862.856010006 15.6727680989 711.570752156 -25 552 -25 c 0
 359 -25 101 41 101 284 c 0
 101 464 257 619 389 718 c 1
 288 771 193 847 193 959 c 0
 193 1166.886896 417.382338823 1335.82705487 643 1399 c 1
 682 1254 l 1
 494.326145526 1207.08153638 343 1053.08940889 343 959 c 0
 343 903.010034363 425.012114197 851.995961934 587 798 c 1
 598 674 l 1
EndSplineSet
Colour: ffff
EndChar

StartChar: uni0665
Encoding: 1637 1637 280
GlifName: uni0665
Width: 1086
VWidth: 1850
Flags: HMW
LayerCount: 2
Fore
SplineSet
535 1039 m 1
 386 861 267 584 267 354 c 0
 267 176 382 125 539 125 c 0
 709 125 819 198 819 361 c 0
 819 623 689 866 535 1039 c 1
428 1146 m 1
 392.565428119 1177.63801061 359.682980456 1201.5446797 323 1226 c 1
 410 1349 l 1
 469.164015409 1306.62698844 527.306738147 1261.54531451 587 1203 c 0
 783 1009 969 708 969 361 c 0
 969 96 757 -25 539 -25 c 0
 347 -25 117 65 117 354 c 0
 117 635 255 944 428 1146 c 1
EndSplineSet
Colour: ffff
EndChar

StartChar: uni0666
Encoding: 1638 1638 281
GlifName: uni0666
Width: 1086
VWidth: 1850
Flags: HMW
LayerCount: 2
Fore
SplineSet
116 1213 m 1
 134 1363 l 1
 226.830017554 1351.86039789 324.298453567 1348 401 1348 c 0
 506 1348 614 1348 697 1284 c 0
 818.338706717 1190.43762374 824 1051 824 590 c 0
 824 379.500715773 923.002670798 168.997329202 1006 86 c 1
 901 -21 l 1
 772.523006027 100.339383197 674 348.939721727 674 590 c 0
 674 1073 648 1130 605 1164 c 0
 570 1190 511 1198 401 1198 c 0
 324.95330665 1198 215.463027753 1201.06443667 116 1213 c 1
EndSplineSet
Colour: ffff
EndChar

StartChar: uni0667
Encoding: 1639 1639 282
GlifName: uni0667
Width: 1086
VWidth: 1850
Flags: HMW
LayerCount: 2
Fore
SplineSet
887 1334 m 1
 1013 1253 l 1
 803.094932281 938.142398421 617 418 617 25 c 1
 467 25 l 1
 467 417.55488527 282.485406786 938.771889822 73 1253 c 1
 199 1334 l 1
 344.050732385 1126.78466802 465.812214741 815.278106385 542 527 c 1
 619.108924534 816.929556248 741.591121917 1126.27303131 887 1334 c 1
EndSplineSet
Colour: ffff
EndChar

StartChar: uni0669
Encoding: 1641 1641 284
GlifName: uni0669
Width: 1086
VWidth: 1850
Flags: HMW
LayerCount: 2
Fore
SplineSet
624 796 m 1
 608 1071 535 1198 460 1198 c 0
 394 1198 295 1046 295 894 c 0
 295 779 347 768 450 768 c 0
 520 768 571 777 624 796 c 1
460 1348 m 0
 733 1348 777 974 777 683 c 0
 777 380.11120632 861.369279382 180.50762749 942 73 c 1
 819 -14 l 1
 723.171559282 122.897772454 636.522511192 330.058969283 628 639 c 1
 571 624 514 618 450 618 c 0
 326 618 145 665 145 894 c 0
 145 1059 237 1348 460 1348 c 0
EndSplineSet
Colour: ffff
EndChar

StartChar: uni06F4
Encoding: 1780 1780 290
GlifName: uni06F_4
Width: 1086
VWidth: 1850
Flags: HMW
LayerCount: 2
Fore
SplineSet
108 1279 m 1
 249 1331 l 1
 271.171391641 1270.13224903 293.659087461 1206.88503688 313 1150 c 1
 381 1276 504 1348 636 1348 c 0
 755.392131834 1348 859.05149362 1282.42275957 934 1170 c 1
 808 1086 l 1
 761.898103703 1155.15284445 705.37049612 1198 636 1198 c 0
 526 1198 398 1096 398 908 c 0
 398 788 486 731 617 731 c 0
 720.219668003 731 805.879937255 773.846262952 869 827 c 1
 968 716 l 1
 877.561767286 630.586113548 748.102677871 581 617 581 c 0
 563 581 510 591 461 611 c 1
 495.291615216 439.541923918 518.547426088 256.657173899 535 51 c 1
 386 40 l 1
 347.093522139 526.330973267 268.721133421 850.410310878 108 1279 c 1
EndSplineSet
Colour: ffff
EndChar

StartChar: uni06F5
Encoding: 1781 1781 291
GlifName: uni06F_5
Width: 1086
VWidth: 1850
Flags: HMW
LayerCount: 2
Fore
SplineSet
550 1054 m 1
 350 845 254 613 254 354 c 0
 254 194 335 125 389 125 c 0
 434 125 476 137 476 199 c 2
 476 269 l 1
 581 269 l 1
 581 199 l 2
 581 139 614 122 673 122 c 0
 724 122 832 195 832 392 c 0
 832 636 716 868 550 1054 c 1
982 392 m 0
 982 159 860 -28 683 -28 c 0
 625 -28 570 -8 525 40 c 1
 479 -7 427 -25 373 -25 c 0
 200 -25 104 167 104 354 c 0
 104 656 222 926 444 1159 c 1
 416 1185 389 1207 361 1230 c 1
 454 1347 l 1
 723 1132 982 794 982 392 c 0
EndSplineSet
Colour: ffff
EndChar

StartChar: uni06F6
Encoding: 1782 1782 292
GlifName: uni06F_6
Width: 1086
VWidth: 2234
Flags: HMW
LayerCount: 2
Fore
SplineSet
871 1152 m 1
 739 1080 l 1
 697.858901542 1155.42534717 654.127909122 1198 577 1198 c 0
 473 1198 331 1065 331 887 c 0
 331 783 420 726 593 726 c 0
 684.943921651 726 783.473463369 747.284598651 861 779 c 1
 922 646 l 1
 572.034626989 450.93952214 426.333849873 311.974776167 277 -5 c 1
 142 61 l 1
 262.368835531 281.676198474 359.659854813 436.862489291 539 578 c 1
 364 591 181 676 181 887 c 0
 181 1131 367 1348 577 1348 c 0
 713.170288273 1348 807.355792756 1268.68104661 871 1152 c 1
EndSplineSet
Colour: ffff
EndChar

StartChar: uni066B
Encoding: 1643 1643 296
GlifName: uni066B_
Width: 1086
VWidth: 1850
Flags: HMW
LayerCount: 2
Fore
SplineSet
428 -394 m 1
 290 -334 l 1
 658 518 l 1
 796 458 l 1
 428 -394 l 1
EndSplineSet
Colour: ffff
EndChar

StartChar: uni060C
Encoding: 1548 1548 298
GlifName: uni060C_
Width: 1086
VWidth: 1446
Flags: HMW
LayerCount: 2
Fore
SplineSet
383 401 m 1
 498 377 602 307 602 188 c 0
 602 95 551 0 441 0 c 0
 299 0 250 112 250 219 c 0
 250 396 352 610 411 678 c 1
 485 612 l 1
 461 584 418 509 383 401 c 1
359 304 m 1
 353 273 350 245 350 219 c 0
 350 135 370 100 441 100 c 0
 478 100 502 123 502 188 c 0
 502 239 457 287 359 304 c 1
EndSplineSet
Colour: ffff00
EndChar

StartChar: uni061F
Encoding: 1567 1567 311
GlifName: uni061F_
Width: 1086
VWidth: 0
Flags: HMW
LayerCount: 2
Fore
SplineSet
473 86 m 0
 473 139 517 198 593 198 c 0
 669 198 713 139 713 86 c 0
 713 31 668 -25 593 -25 c 0
 518 -25 473 31 473 86 c 0
816 906 m 1
 820 926 822 947 822 964 c 0
 822 1105 729 1207 556 1207 c 0
 378 1207 264 1100 264 934 c 0
 264 797 340 746 444 679 c 0
 538 618 660 536 660 369 c 1
 510 369 l 1
 510 468 450 509 353 573 c 0
 249 641 114 734 114 934 c 0
 114 1162 290 1339 556 1339 c 0
 817 1339 972 1165 972 964 c 0
 972 936 968 908 963 881 c 0
 816 906 l 1
EndSplineSet
Colour: ffff
EndChar

StartChar: section
Encoding: 167 167 313
GlifName: section
Width: 2048
VWidth: 1850
Flags: HM
LayerCount: 2
Back
SplineSet
92.1875 302.771484375 m 1
 182.56640625 302.771484375 l 1
 182.56640625 150.030273438 314.520507812 85.8603515625 467.26171875 85.8603515625 c 0
 620.00390625 85.8603515625 753.765625 150.030273438 753.765625 302.771484375 c 0
 753.765625 402.188476562 631.752929688 433.821289062 460.032226562 458.224609375 c 0
 297.348632812 480.819335938 90.3798828125 516.067382812 90.3798828125 715.805664062 c 0
 90.3798828125 847.759765625 167.202148438 934.524414062 268.426757812 980.618164062 c 1
 170.817382812 1012.25097656 90.3798828125 1067.38183594 90.3798828125 1177.64550781 c 0
 90.3798828125 1390.03710938 289.21484375 1475.89746094 467.26171875 1475.89746094 c 0
 645.309570312 1475.89746094 842.336914062 1390.03710938 842.336914062 1177.64550781 c 1
 751.958007812 1177.64550781 l 1
 751.958007812 1330.38671875 620.00390625 1394.55566406 467.26171875 1394.55566406 c 0
 314.520507812 1394.55566406 180.758789062 1330.38671875 180.758789062 1177.64550781 c 0
 180.758789062 1078.22753906 302.771484375 1045.69140625 474.4921875 1020.38476562 c 0
 638.983398438 995.982421875 844.14453125 957.119140625 844.14453125 752.861328125 c 0
 844.14453125 622.71484375 770.033203125 541.373046875 671.51953125 497.991210938 c 1
 766.41796875 466.358398438 844.14453125 410.323242188 844.14453125 302.771484375 c 0
 844.14453125 90.3798828125 645.309570312 4.5185546875 467.26171875 4.5185546875 c 0
 289.21484375 4.5185546875 92.1875 90.3798828125 92.1875 302.771484375 c 1
463.646484375 939.947265625 m 1
 313.6171875 939.04296875 180.758789062 867.643554688 180.758789062 715.805664062 c 0
 180.758789062 591.08203125 295.541015625 563.064453125 470.876953125 538.662109375 c 1
 623.619140625 539.565429688 753.765625 601.927734375 753.765625 752.861328125 c 0
 753.765625 884.815429688 638.079101562 913.737304688 463.646484375 939.947265625 c 1
EndSplineSet
Colour: ffff
EndChar

StartChar: uni00B2
Encoding: 178 178 314
GlifName: uni00B_2
Width: 2048
VWidth: 1850
Flags: HM
LayerCount: 2
Back
SplineSet
103.936523438 960.196289062 m 1
 374.170898438 1228.2578125 l 2
 403.092773438 1257.17871094 418.45703125 1275.25488281 418.45703125 1325.8671875 c 0
 418.45703125 1404.49804688 363.326171875 1439.74609375 297.348632812 1439.74609375 c 0
 231.37109375 1439.74609375 176.240234375 1404.49804688 176.240234375 1325.8671875 c 1
 94.8984375 1325.8671875 l 1
 94.8984375 1456.91796875 200.642578125 1521.08691406 297.348632812 1521.08691406 c 0
 394.0546875 1521.08691406 499.798828125 1456.91796875 499.798828125 1325.8671875 c 0
 499.798828125 1249.94921875 466.358398438 1204.75878906 432.013671875 1170.41503906 c 2
 234.083007812 975.1953125 l 1
 499.798828125 975.1953125 l 1
 499.798828125 893.853515625 l 1
 103.936523438 893.853515625 l 1
 103.936523438 960.196289062 l 1
EndSplineSet
Colour: ffff00
EndChar

StartChar: uni00B3
Encoding: 179 179 315
GlifName: uni00B_3
Width: 2048
VWidth: 1850
Flags: HM
LayerCount: 2
Back
SplineSet
176.240234375 1343.94335938 m 1
 94.8984375 1343.94335938 l 1
 94.8984375 1446.9765625 187.0859375 1521.08691406 291.022460938 1521.08691406 c 0
 394.958984375 1521.08691406 487.145507812 1446.9765625 487.145507812 1343.94335938 c 0
 487.145507812 1287.90820312 460.032226562 1240.00683594 416.649414062 1207.47070312 c 1
 458.224609375 1175.83789062 487.145507812 1127.03222656 487.145507812 1070.99707031 c 0
 487.145507812 967.96484375 394.958984375 893.853515625 291.022460938 893.853515625 c 0
 187.0859375 893.853515625 94.8984375 967.96484375 94.8984375 1070.99707031 c 1
 176.240234375 1070.99707031 l 1
 176.240234375 1022.19238281 223.237304688 975.1953125 291.022460938 975.1953125 c 0
 358.806640625 975.1953125 405.803710938 1022.19238281 405.803710938 1070.99707031 c 0
 405.803710938 1119.80273438 358.806640625 1166.79980469 291.022460938 1166.79980469 c 2
 228.66015625 1166.79980469 l 1
 228.66015625 1248.14160156 l 1
 291.022460938 1248.14160156 l 2
 358.806640625 1248.14160156 405.803710938 1295.13867188 405.803710938 1343.94335938 c 0
 405.803710938 1392.74804688 358.806640625 1439.74609375 291.022460938 1439.74609375 c 0
 223.237304688 1439.74609375 176.240234375 1392.74804688 176.240234375 1343.94335938 c 1
EndSplineSet
Colour: ffff00
EndChar

StartChar: eth
Encoding: 240 240 316
GlifName: eth
Width: 2048
VWidth: 1850
Flags: HM
LayerCount: 2
Back
SplineSet
216.911132812 1395.45996094 m 1
 234.986328125 1474.99414062 l 1
 339.827148438 1456.01367188 439.244140625 1405.40136719 528.719726562 1336.71289062 c 1
 687.788085938 1465.95605469 l 1
 747.438476562 1405.40136719 l 1
 594.697265625 1281.58203125 l 1
 815.223632812 1079.13183594 965.252929688 769.129882812 970.67578125 565.775390625 c 1
 880.296875 563.967773438 l 1
 874.874023438 749.24609375 726.651367188 1039.36425781 525.10546875 1224.64257812 c 1
 355.19140625 1088.16992188 l 1
 295.541015625 1147.8203125 l 1
 458.224609375 1280.67773438 l 1
 382.305664062 1338.52050781 300.059570312 1380.09570312 216.911132812 1395.45996094 c 1
EndSplineSet
Refer: 5 111 N 1 0 0 1 0 0 2
Colour: ffff
EndChar

StartChar: underscore
Encoding: 95 95 328
Width: 1086
VWidth: 1850
Flags: HMW
LayerCount: 2
Fore
SplineSet
1111 116 m 1
 1111 -16 l 1
 -25 -16 l 1
 -25 116 l 1
 1111 116 l 1
EndSplineSet
Colour: ffff
EndChar

StartChar: seven
Encoding: 55 55 329
Width: 1086
VWidth: 1494
Flags: HMW
LayerCount: 2
Fore
SplineSet
275 1008 m 1
 125 1008 l 1
 125 1339 l 1
 930 1339 l 1
 995 1268 l 1
 576 -25 l 1
 421 -25 l 1
 820 1207 l 1
 275 1207 l 1
 275 1008 l 1
EndSplineSet
Colour: ffff
EndChar

StartChar: dollar
Encoding: 36 36 333
Width: 1086
VWidth: 1850
Flags: HMW
LayerCount: 2
Fore
SplineSet
483 1518 m 1
 603 1518 l 1
 603 -170 l 1
 483 -170 l 1
 483 1518 l 1
EndSplineSet
Refer: 31 83 N 1 0 0 1 0 0 2
Colour: ffff
EndChar

StartChar: ampersand
Encoding: 38 38 334
Width: 1086
VWidth: 1850
Flags: HMW
LayerCount: 2
Fore
SplineSet
438 769 m 1
 599 848 711 903 711 1041 c 0
 711 1130 645 1207 520 1207 c 0
 389 1207 317 1121 317 1011 c 0
 317 959 333 906 369 859 c 2
 438 769 l 1
714 167 m 1
 391 593 l 1
 289 534 225 472 225 352 c 0
 225 215 355 116 520 116 c 0
 600 116 663 135 714 167 c 1
906 152 m 1
 1012 13 l 1
 883 -55 l 1
 797 57 l 1
 719 9 626 -16 520 -16 c 0
 285 -16 75 133 75 352 c 0
 75 528 187 632 308 703 c 1
 245 785 l 2
 191 854 167 935 167 1011 c 0
 167 1175 292 1339 520 1339 c 0
 733 1339 861 1193 861 1041 c 0
 861 823 667 729 521 659 c 1
 814 274 l 1
 844 328 861 395 861 472 c 1
 1011 472 l 1
 1011 349 975 237 906 152 c 1
EndSplineSet
Colour: ffff
EndChar

StartChar: question
Encoding: 63 63 335
Width: 1086
VWidth: 0
Flags: HMW
LayerCount: 2
Fore
SplineSet
613 86 m 0
 613 31 568 -25 493 -25 c 0
 418 -25 373 31 373 86 c 0
 373 139 417 198 493 198 c 0
 569 198 613 139 613 86 c 0
123 881 m 0
 118 908 114 936 114 964 c 0
 114 1165 269 1339 530 1339 c 0
 796 1339 972 1162 972 934 c 0
 972 734 837 641 733 573 c 0
 636 509 576 468 576 369 c 1
 426 369 l 1
 426 536 549 618 642 679 c 0
 746 747 822 797 822 934 c 0
 822 1100 708 1207 530 1207 c 0
 357 1207 264 1105 264 964 c 0
 264 947 266 926 270 906 c 1
 123 881 l 0
EndSplineSet
Colour: ffff
EndChar

StartChar: at
Encoding: 64 64 336
Width: 1086
VWidth: 1850
Flags: HMW
LayerCount: 2
Fore
SplineSet
550 949 m 0
 660 949 711 877 749 817 c 1
 730 398 l 2
 727 352 724 306 724 260 c 0
 724 133 769 95 777 95 c 0
 811 95 868.849609375 258.900390625 868.849609375 485.950195312 c 0
 868.849609375 903 693.099609375 1189.90039062 543 1189.90039062 c 0
 392.900390625 1189.90039062 217.150390625 903 217.150390625 485.950195312 c 0
 217.150390625 68.900390625 392.900390625 -219.900390625 543 -219.900390625 c 0
 568.650390625 -219.900390625 595.25 -213.25 619.950195312 -198.049804688 c 1
 669 -315 l 1
 630 -336 587 -347 543 -347 c 0
 267 -347 100 57 100 486 c 0
 100 915 267 1317 543 1317 c 0
 819 1317 986 915 986 486 c 0
 986 281 949 5 777 5 c 0
 714 5 676 42 653 93 c 1
 618 36 571 5 513 5 c 0
 379 5 302 150 302 416 c 0
 302 734 386 949 550 949 c 0
557 859 m 0
 489 859 402 750 402 416 c 0
 402 142 473 95 513 95 c 0
 549 95 619 157 630 406 c 2
 647 795 l 1
 624 839 592 859 557 859 c 0
EndSplineSet
Colour: ffff
EndChar

StartChar: b
Encoding: 98 98 337
Width: 1086
VWidth: 1494
Flags: HMW
LayerCount: 2
Fore
SplineSet
345 492 m 0
 345 270 430 116 633 116 c 0
 766 116 861 265 861 492 c 0
 861 719 766 868 633 868 c 0
 430 868 345 714 345 492 c 0
75 -16 m 1
 75 116 l 1
 195 116 l 1
 195 1207 l 1
 75 1207 l 1
 75 1339 l 1
 465 1339 l 1
 465 1207 l 1
 345 1207 l 1
 345 863 l 1
 410 959 505 1000 633 1000 c 0
 915 1000 1011 723 1011 492 c 0
 1011 261 915 -16 633 -16 c 0
 504 -16 409 26 345 121 c 1
 345 -16 l 1
 75 -16 l 1
EndSplineSet
Colour: ffff
EndChar

StartChar: d
Encoding: 100 100 338
Width: 1086
VWidth: 1494
Flags: HMW
LayerCount: 2
Fore
SplineSet
741 492 m 0
 741 714 656 868 453 868 c 0
 320 868 225 719 225 492 c 0
 225 265 320 116 453 116 c 0
 656 116 741 270 741 492 c 0
1011 -16 m 1
 741 -16 l 1
 741 121 l 1
 677 26 582 -16 453 -16 c 0
 171 -16 75 261 75 492 c 0
 75 723 171 1000 453 1000 c 0
 581 1000 676 959 741 863 c 1
 741 1207 l 1
 621 1207 l 1
 621 1339 l 1
 1011 1339 l 1
 1011 1207 l 1
 891 1207 l 1
 891 116 l 1
 1011 116 l 1
 1011 -16 l 1
EndSplineSet
Colour: ffff
EndChar

StartChar: h
Encoding: 104 104 339
Width: 1086
VWidth: 1494
Flags: HMW
LayerCount: 2
Fore
SplineSet
75 -16 m 1
 75 116 l 1
 195 116 l 1
 195 1207 l 1
 75 1207 l 1
 75 1339 l 1
 465 1339 l 1
 465 1207 l 1
 345 1207 l 1
 345 856 l 1
 409 956 496 1000 609 1000 c 0
 827 1000 891 848 891 647 c 2
 891 116 l 1
 1011 116 l 1
 1011 -16 l 1
 621 -16 l 1
 621 116 l 1
 741 116 l 1
 741 647 l 2
 741 841 706 868 609 868 c 0
 463 868 345 711 345 492 c 2
 345 116 l 1
 465 116 l 1
 465 -16 l 1
 75 -16 l 1
EndSplineSet
Colour: ffff
EndChar

StartChar: i
Encoding: 105 105 340
Width: 1086
VWidth: 1850
Flags: HMW
LayerCount: 2
Fore
SplineSet
618 1338 m 1
 618 1169 l 1
 468 1169 l 1
 468 1338 l 1
 618 1338 l 1
125 -16 m 1
 125 116 l 1
 468 116 l 1
 468 868 l 1
 218 868 l 1
 218 1000 l 1
 618 1000 l 1
 618 116 l 1
 961 116 l 1
 961 -16 l 1
 125 -16 l 1
EndSplineSet
Colour: ffff
EndChar

StartChar: j
Encoding: 106 106 341
Width: 1086
VWidth: 1850
Flags: HMW
LayerCount: 2
Fore
SplineSet
836 1338 m 1
 836 1169 l 1
 686 1169 l 1
 686 1338 l 1
 836 1338 l 1
286 867 m 1
 286 999 l 1
 836 999 l 1
 836 -88 l 2
 836 -249 704 -391 523 -391 c 0
 250 -391 l 1
 250 -259 l 1
 523 -259 l 0
 604 -259 686 -189 686 -88 c 2
 686 867 l 1
 286 867 l 1
EndSplineSet
Colour: ffff
EndChar

StartChar: k
Encoding: 107 107 342
Width: 1086
VWidth: 1494
Flags: HMW
LayerCount: 2
Fore
SplineSet
75 -16 m 1
 75 116 l 1
 195 116 l 1
 195 1207 l 1
 75 1207 l 1
 75 1339 l 1
 465 1339 l 1
 465 1207 l 1
 345 1207 l 1
 345 587 l 1
 620 868 l 1
 611 868 l 1
 611 1000 l 1
 961 1000 l 1
 961 868 l 1
 819 868 l 1
 474 515 l 1
 889 116 l 1
 1011 116 l 1
 1011 -16 l 1
 661 -16 l 1
 661 116 l 1
 685 116 l 1
 375 414 l 1
 345 384 l 1
 345 116 l 1
 465 116 l 1
 465 -16 l 1
 75 -16 l 1
EndSplineSet
Colour: ffff
EndChar

StartChar: l
Encoding: 108 108 343
Width: 1086
VWidth: 1494
Flags: HMW
LayerCount: 2
Fore
SplineSet
175 -16 m 1
 175 116 l 1
 488 116 l 1
 488 1207 l 1
 175 1207 l 1
 175 1339 l 1
 638 1339 l 1
 638 116 l 1
 911 116 l 1
 911 -16 l 1
 175 -16 l 1
EndSplineSet
Colour: ffff
EndChar

StartChar: m
Encoding: 109 109 344
Width: 1086
VWidth: 1494
Flags: HMW
LayerCount: 2
Fore
SplineSet
75 1009 m 1
 225 1009 l 1
 225 947 l 1
 267 980 320 1000 385 1000 c 0
 474 1000 535 959 571 899 c 1
 616 959 685 1000 777 1000 c 0
 959 1000 1011 839 1011 684 c 2
 1011 -25 l 1
 861 -25 l 1
 861 684 l 2
 861 839 815 868 777 868 c 0
 702 868 619 761 619 607 c 2
 619 -25 l 1
 469 -25 l 1
 469 684 l 2
 469 839 423 868 385 868 c 0
 310 868 225 761 225 607 c 2
 225 -25 l 1
 75 -25 l 1
 75 1009 l 1
EndSplineSet
Colour: ffff
EndChar

StartChar: n
Encoding: 110 110 345
Width: 1086
VWidth: 1494
Flags: HMW
LayerCount: 2
Fore
SplineSet
75 -16 m 1
 75 116 l 1
 195 116 l 1
 195 867 l 1
 75 868 l 1
 75 1000 l 1
 345 999 l 1
 345 856 l 1
 409 956 496 1000 609 1000 c 0
 827 1000 891 848 891 647 c 2
 891 116 l 1
 1011 116 l 1
 1011 -16 l 1
 621 -16 l 1
 621 116 l 1
 741 116 l 1
 741 647 l 2
 741 841 706 868 609 868 c 0
 463 868 345 711 345 492 c 2
 345 116 l 1
 465 116 l 1
 465 -16 l 1
 75 -16 l 1
EndSplineSet
Colour: ffff
EndChar

StartChar: r
Encoding: 114 114 348
Width: 1086
VWidth: 1494
Flags: HMW
LayerCount: 2
Fore
SplineSet
910 812 m 1
 860 844 793 868 704 868 c 0
 500 868 395 726 395 529 c 2
 395 116 l 1
 565 116 l 1
 565 -16 l 1
 75 -16 l 1
 75 116 l 1
 245 116 l 1
 245 867 l 1
 75 868 l 1
 75 1000 l 1
 395 999 l 1
 395 853 l 1
 465 945 566 1000 704 1000 c 0
 822.50068369 1000 921.420500341 964.218942111 1005 916 c 1
 910 812 l 1
EndSplineSet
Colour: ffff
EndChar

StartChar: cent
Encoding: 162 162 351
Width: 2048
VWidth: 1850
Flags: HM
LayerCount: 2
Back
SplineSet
563.967773438 985.13671875 m 1
 473.588867188 985.13671875 l 1
 473.588867188 1435.2265625 l 1
 563.967773438 1435.2265625 l 1
 563.967773438 985.13671875 l 1
563.967773438 -370.555664062 m 1
 473.588867188 -370.555664062 l 1
 473.588867188 45.189453125 l 1
 563.967773438 45.189453125 l 1
 563.967773438 -370.555664062 l 1
EndSplineSet
Refer: 1 99 N 1 0 0 1 0 0 2
Colour: ffff
EndChar

StartChar: sterling
Encoding: 163 163 352
Width: 2048
VWidth: 1850
Flags: HM
LayerCount: 2
Back
SplineSet
90.3798828125 487.145507812 m 1
 90.3798828125 568.487304688 l 1
 286.502929688 568.487304688 l 1
 286.502929688 1193.00976562 l 2
 286.502929688 1345.75097656 409.418945312 1475.89746094 573.005859375 1475.89746094 c 0
 717.61328125 1475.89746094 831.491210938 1373.76855469 854.990234375 1245.4296875 c 1
 766.41796875 1232.77636719 l 1
 748.342773438 1328.57910156 667.000976562 1394.55566406 573.005859375 1394.55566406 c 0
 467.26171875 1394.55566406 376.8828125 1309.59960938 376.8828125 1193.00976562 c 2
 376.8828125 568.487304688 l 1
 684.172851562 567.583007812 l 1
 684.172851562 486.2421875 l 1
 376.8828125 487.145507812 l 1
 376.8828125 254.870117188 l 1
 372.36328125 188.893554688 355.19140625 131.05078125 315.424804688 85.8603515625 c 1
 1121.61035156 85.8603515625 l 1
 1121.61035156 4.5185546875 l 1
 90.3798828125 4.5185546875 l 25
 90.3798828125 85.8603515625 l 17
 218.71875 85.8603515625 277.46484375 131.05078125 286.502929688 256.677734375 c 1
 286.502929688 487.145507812 l 1
 90.3798828125 487.145507812 l 1
EndSplineSet
Colour: ffff
EndChar

StartChar: currency
Encoding: 164 164 353
Width: 2048
VWidth: 1850
Flags: HM
LayerCount: 2
Back
SplineSet
249.297851562 835.106445312 m 1
 90.3798828125 1030.33007812 l 1
 202.450195312 1030.33007812 l 1
 305.896484375 902.891601562 l 1
 249.297851562 835.106445312 l 1
812.842773438 889.334960938 m 1
 927.293945312 1030.33007812 l 1
 1039.36425781 1030.33007812 l 1
 873.825195312 826.97265625 l 1
 812.842773438 889.334960938 l 1
882.654296875 192.508789062 m 1
 1039.36425781 -0.00390625 l 1
 927.293945312 -0.00390625 l 1
 821.646484375 130.146484375 l 1
 882.654296875 192.508789062 l 1
308.096679688 130.146484375 m 1
 202.450195312 -0.00390625 l 1
 90.3798828125 -0.00390625 l 1
 255.918945312 203.353515625 l 1
 308.096679688 130.146484375 l 1
EndSplineSet
Refer: 5 111 N 1 0 0 1 28.9214 0 2
Colour: ffff
EndChar

StartChar: yen
Encoding: 165 165 354
Width: 2048
VWidth: 1850
Flags: HM
LayerCount: 2
Back
SplineSet
270.234375 443.763671875 m 1
 270.234375 525.10546875 l 1
 955.311523438 525.10546875 l 1
 955.311523438 443.763671875 l 1
 270.234375 443.763671875 l 1
270.234375 190.701171875 m 1
 270.234375 272.041992188 l 1
 955.311523438 272.041992188 l 1
 955.311523438 190.701171875 l 1
 270.234375 190.701171875 l 1
EndSplineSet
Refer: 37 89 N 1 0 0 1 0 0 2
Colour: ffff
EndChar

StartChar: brokenbar
Encoding: 166 166 355
Width: 2048
VWidth: 1850
Flags: HM
LayerCount: 2
Back
SplineSet
225.94921875 934.524414062 m 1
 135.569335938 934.524414062 l 1
 135.569335938 1480.41699219 l 1
 225.94921875 1480.41699219 l 1
 225.94921875 934.524414062 l 1
225.94921875 0 m 1
 135.569335938 0 l 1
 135.569335938 527.81640625 l 1
 225.94921875 527.81640625 l 1
 225.94921875 0 l 1
EndSplineSet
Colour: ffff
EndChar

StartChar: copyright
Encoding: 169 169 356
Width: 2048
VWidth: 1850
Flags: HM
LayerCount: 2
Back
SplineSet
531.431640625 742.015625 m 0
 531.431640625 910.122070312 662.481445312 1047.49902344 832.395507812 1047.49902344 c 0
 920.615234375 1047.49902344 1007.93945312 1008.94335938 1065.78808594 938.977539062 c 1
 1128.95800781 998.432617188 l 1
 1054.75390625 1081.67675781 944.81640625 1128.83984375 832.395507812 1128.83984375 c 0
 602.831054688 1128.83984375 441.051757812 946.2734375 441.051757812 742.015625 c 0
 441.051757812 537.7578125 602.831054688 355.19140625 832.395507812 355.19140625 c 0
 944.815429688 355.19140625 1054.75390625 402.35546875 1128.95898438 485.599609375 c 1
 1065.78710938 545.053710938 l 1
 1007.93945312 475.087890625 920.615234375 436.533203125 832.395507812 436.533203125 c 0
 662.481445312 436.533203125 531.431640625 573.91015625 531.431640625 742.015625 c 0
180.758789062 740.208007812 m 0
 180.758789062 375.075195312 477.204101562 85.8603515625 832.395507812 85.8603515625 c 0
 1187.58691406 85.8603515625 1484.03222656 375.075195312 1484.03222656 740.208007812 c 0
 1484.03222656 1105.34179688 1187.58691406 1394.55566406 832.395507812 1394.55566406 c 0
 477.204101562 1394.55566406 180.758789062 1105.34179688 180.758789062 740.208007812 c 0
90.3798828125 740.208007812 m 0
 90.3798828125 1143.30078125 419.361328125 1475.89746094 832.395507812 1475.89746094 c 0
 1245.4296875 1475.89746094 1574.41113281 1143.30078125 1574.41113281 740.208007812 c 0
 1574.41113281 337.115234375 1245.4296875 4.5185546875 832.395507812 4.5185546875 c 0
 419.361328125 4.5185546875 90.3798828125 337.115234375 90.3798828125 740.208007812 c 0
EndSplineSet
Colour: ffff
EndChar

StartChar: ordfeminine
Encoding: 170 170 357
Width: 2048
VWidth: 1850
Flags: HM
LayerCount: 2
Back
SplineSet
615.484375 941.754882812 m 1
 566.6796875 876.681640625 l 1
 545.892578125 892.045898438 523.297851562 915.544921875 507.029296875 957.119140625 c 1
 452.801757812 899.276367188 379.59375 873.06640625 299.15625 873.06640625 c 0
 188.893554688 873.06640625 96.7060546875 933.620117188 96.7060546875 1061.05566406 c 0
 96.7060546875 1215.60449219 256.677734375 1263.50585938 389.536132812 1263.50585938 c 0
 422.9765625 1263.50585938 455.512695312 1261.69824219 488.049804688 1256.27539062 c 1
 488.049804688 1330.38671875 l 2
 488.049804688 1399.97851562 423.879882812 1442.45703125 338.922851562 1442.45703125 c 0
 253.966796875 1442.45703125 189.796875 1399.97851562 189.796875 1330.38671875 c 1
 108.455078125 1330.38671875 l 1
 108.455078125 1465.05175781 234.083007812 1523.79882812 338.922851562 1523.79882812 c 0
 443.763671875 1523.79882812 569.390625 1465.05175781 569.390625 1330.38671875 c 2
 569.390625 1079.13183594 l 2
 569.390625 972.483398438 597.408203125 955.311523438 615.484375 941.754882812 c 1
488.049804688 1074.61230469 m 1
 488.049804688 1173.12597656 l 1
 456.416992188 1178.54882812 422.9765625 1182.1640625 389.536132812 1182.1640625 c 0
 260.29296875 1182.1640625 178.047851562 1137.87792969 178.047851562 1061.05566406 c 0
 178.047851562 984.233398438 217.814453125 954.408203125 299.15625 954.408203125 c 0
 385.920898438 954.408203125 449.186523438 986.041015625 488.049804688 1074.61230469 c 1
EndSplineSet
Colour: ffff00
EndChar

StartChar: logicalnot
Encoding: 172 172 358
Width: 2048
VWidth: 1850
Flags: HM
LayerCount: 2
Back
SplineSet
90.3798828125 629.9453125 m 1
 90.3798828125 711.287109375 l 1
 789.916992188 711.287109375 l 1
 789.916992188 394.0546875 l 1
 699.537109375 394.0546875 l 1
 699.537109375 629.9453125 l 1
 90.3798828125 629.9453125 l 1
EndSplineSet
Colour: ffff
EndChar

StartChar: registered
Encoding: 174 174 360
Width: 2048
VWidth: 1850
Flags: HM
LayerCount: 2
Back
SplineSet
1005.2734375 395.862304688 m 1
 843.241210938 564.872070312 l 1
 658.8671875 564.872070312 l 1
 658.8671875 395.862304688 l 1
 568.487304688 395.862304688 l 1
 568.487304688 1134.26269531 l 1
 864.028320312 1134.26269531 l 0
 1033.03808594 1134.26269531 1164.08789062 1002.30859375 1164.08789062 848.6640625 c 0
 1164.08789062 722.1328125 1074.61230469 612.7734375 951.696289062 577.525390625 c 1
 1124.32128906 395.862304688 l 1
 1005.2734375 395.862304688 l 1
658.8671875 646.213867188 m 1
 864.028320312 646.213867188 l 2
 976.098632812 646.213867188 1073.70898438 734.78515625 1073.70898438 848.6640625 c 0
 1073.70898438 961.637695312 977.002929688 1052.921875 864.028320312 1052.921875 c 2
 658.8671875 1052.921875 l 1
 658.8671875 646.213867188 l 1
180.758789062 740.208007812 m 0
 180.758789062 375.075195312 477.204101562 85.8603515625 832.395507812 85.8603515625 c 0
 1187.58691406 85.8603515625 1484.03222656 375.075195312 1484.03222656 740.208007812 c 0
 1484.03222656 1105.34179688 1187.58691406 1394.55566406 832.395507812 1394.55566406 c 0
 477.204101562 1394.55566406 180.758789062 1105.34179688 180.758789062 740.208007812 c 0
90.3798828125 740.208007812 m 0
 90.3798828125 1143.30078125 419.361328125 1475.89746094 832.395507812 1475.89746094 c 0
 1245.4296875 1475.89746094 1574.41113281 1143.30078125 1574.41113281 740.208007812 c 0
 1574.41113281 337.115234375 1245.4296875 4.5185546875 832.395507812 4.5185546875 c 0
 419.361328125 4.5185546875 90.3798828125 337.115234375 90.3798828125 740.208007812 c 0
EndSplineSet
Colour: ffff
EndChar

StartChar: paragraph
Encoding: 182 182 363
Width: 2048
VWidth: 1850
Flags: HM
LayerCount: 2
Back
SplineSet
1061.05566406 -450.08984375 m 1
 970.67578125 -450.08984375 l 1
 970.67578125 1394.55566406 l 1
 798.955078125 1394.55566406 l 1
 798.955078125 -450.08984375 l 1
 708.575195312 -450.08984375 l 1
 708.575195312 591.986328125 l 1
 507.932617188 591.986328125 l 2
 273.849609375 591.986328125 90.3798828125 783.590820312 90.3798828125 1033.94140625 c 0
 90.3798828125 1284.29296875 273.849609375 1475.89746094 507.932617188 1475.89746094 c 0
 1061.05566406 1475.89746094 l 1
 1061.05566406 -450.08984375 l 1
708.575195312 1394.55566406 m 1
 507.932617188 1394.55566406 l 2
 335.307617188 1394.55566406 180.758789062 1251.75683594 180.758789062 1033.94140625 c 0
 180.758789062 816.126953125 335.307617188 673.327148438 507.932617188 673.327148438 c 2
 708.575195312 673.327148438 l 1
 708.575195312 1394.55566406 l 1
EndSplineSet
Colour: ffff
EndChar

StartChar: uni00B9
Encoding: 185 185 365
Width: 2048
VWidth: 1850
Flags: HM
LayerCount: 2
Back
SplineSet
350.672851562 1504.81933594 m 1
 350.672851562 845.048828125 l 1
 269.331054688 845.048828125 l 1
 269.331054688 1394.55566406 l 1
 161.779296875 1305.08007812 l 1
 109.359375 1368.34570312 l 1
 275.744140625 1504.81933594 l 1
 350.672851562 1504.81933594 l 1
EndSplineSet
Colour: ffff00
EndChar

StartChar: onequarter
Encoding: 188 188 367
Width: 2048
VWidth: 1850
Flags: HM
LayerCount: 2
Back
SplineSet
494.375976562 22.5947265625 m 1
 420.264648438 67.7841796875 l 1
 1468.66699219 1457.82128906 l 1
 1542.77832031 1412.63183594 l 1
 494.375976562 22.5947265625 l 1
1482.22460938 -24.40234375 m 1
 1482.22460938 620.907226562 l 1
 1060.15136719 -24.40234375 l 1
 1482.22460938 -24.40234375 l 1
1727.15234375 -24.40234375 m 1
 1727.15234375 -105.744140625 l 1
 1572.60351562 -105.744140625 l 1
 1572.60351562 -364.229492188 l 1
 1482.22460938 -364.229492188 l 1
 1482.22460938 -105.744140625 l 1
 959.830078125 -105.744140625 l 1
 959.830078125 -17.171875 l 1
 1463.24414062 752.861328125 l 1
 1572.60351562 752.861328125 l 1
 1572.60351562 -24.40234375 l 1
 1727.15234375 -24.40234375 l 1
162.68359375 1369.25 m 1
 90.3798828125 1419.86230469 l 1
 291.92578125 1653.9453125 l 1
 408.515625 1653.9453125 l 1
 408.515625 534.142578125 l 1
 318.135742188 534.142578125 l 1
 318.135742188 1550.91308594 l 1
 162.68359375 1369.25 l 1
EndSplineSet
Colour: ffff
EndChar

StartChar: onehalf
Encoding: 189 189 368
Width: 2048
VWidth: 1850
Flags: HM
LayerCount: 2
Back
SplineSet
1862.72167969 -282.887695312 m 1
 1862.72167969 -364.229492188 l 1
 1180.35644531 -364.229492188 l 1
 1180.35644531 -269.331054688 l 1
 1677.44433594 199.73828125 l 0
 1737.99804688 257.58203125 1776.86132812 309.09765625 1776.86132812 424.784179688 c 0
 1776.86132812 601.927734375 1650.33007812 678.75 1523.79882812 678.75 c 0
 1397.26757812 678.75 1271.63964844 601.927734375 1271.63964844 424.784179688 c 1
 1181.26074219 424.784179688 l 1
 1181.26074219 645.309570312 1352.078125 760.091796875 1523.79882812 760.091796875 c 0
 1695.51953125 760.091796875 1867.24121094 645.309570312 1867.24121094 424.784179688 c 0
 1867.24121094 287.407226562 1812.109375 208.776367188 1742.51757812 143.703125 c 2
 1290.61914062 -282.887695312 l 1
 1862.72167969 -282.887695312 l 1
494.375976562 22.5947265625 m 1
 420.264648438 67.7841796875 l 1
 1468.66699219 1457.82128906 l 1
 1542.77832031 1412.63183594 l 1
 494.375976562 22.5947265625 l 1
162.68359375 1369.25 m 1
 90.3798828125 1419.86230469 l 1
 291.92578125 1653.9453125 l 1
 408.515625 1653.9453125 l 1
 408.515625 534.142578125 l 1
 318.135742188 534.142578125 l 1
 318.135742188 1550.91308594 l 1
 162.68359375 1369.25 l 1
EndSplineSet
Colour: ffff
EndChar

StartChar: threequarters
Encoding: 190 190 369
Width: 2048
VWidth: 2082
Flags: HM
LayerCount: 2
Back
SplineSet
90.3798828125 833.298828125 m 1
 180.758789062 833.298828125 l 1
 180.758789062 656.155273438 307.290039062 579.333007812 433.821289062 579.333007812 c 0
 572.102539062 579.333007812 685.077148438 678.75 685.077148438 795.33984375 c 0
 685.077148438 961.637695312 579.333007812 1019.48144531 415.74609375 1019.48144531 c 2
 328.078125 1019.48144531 l 1
 328.078125 1100.82226562 l 1
 415.74609375 1100.82226562 l 2
 579.333007812 1100.82226562 685.077148438 1158.66503906 685.077148438 1324.96386719 c 0
 685.077148438 1441.55371094 572.102539062 1540.97070312 433.821289062 1540.97070312 c 0
 307.290039062 1540.97070312 180.758789062 1464.1484375 180.758789062 1287.00488281 c 1
 90.3798828125 1287.00488281 l 1
 90.3798828125 1507.53027344 262.100585938 1622.3125 433.821289062 1622.3125 c 0
 619.099609375 1622.3125 775.456054688 1490.35839844 775.456054688 1324.96386719 c 0
 775.456054688 1196.625 717.61328125 1107.14941406 620.907226562 1060.15136719 c 1
 716.709960938 1013.15429688 775.456054688 923.678710938 775.456054688 795.33984375 c 0
 775.456054688 629.9453125 619.099609375 497.991210938 433.821289062 497.991210938 c 0
 262.100585938 497.991210938 90.3798828125 612.7734375 90.3798828125 833.298828125 c 1
648.021484375 22.5947265625 m 1
 573.91015625 67.7841796875 l 1
 1622.3125 1457.82128906 l 1
 1696.42382812 1412.63183594 l 1
 648.021484375 22.5947265625 l 1
1635.86914062 -24.40234375 m 1
 1635.86914062 620.907226562 l 1
 1213.796875 -24.40234375 l 1
 1635.86914062 -24.40234375 l 1
1880.79785156 -24.40234375 m 1
 1880.79785156 -105.744140625 l 1
 1726.24902344 -105.744140625 l 1
 1726.24902344 -364.229492188 l 1
 1635.86914062 -364.229492188 l 1
 1635.86914062 -105.744140625 l 1
 1113.47558594 -105.744140625 l 1
 1113.47558594 -17.171875 l 1
 1616.88964844 752.861328125 l 1
 1726.24902344 752.861328125 l 1
 1726.24902344 -24.40234375 l 1
 1880.79785156 -24.40234375 l 1
EndSplineSet
Colour: ffff
EndChar

StartChar: Eth
Encoding: 208 208 386
Width: 2048
VWidth: 1850
Flags: HM
LayerCount: 2
Back
SplineSet
90.3798828125 699.537109375 m 1
 90.3798828125 780.87890625 l 1
 652.540039062 780.87890625 l 1
 652.540039062 699.537109375 l 1
 90.3798828125 699.537109375 l 1
EndSplineSet
Refer: 16 68 N 1 0 0 1 152.741 0 2
Colour: ffff
EndChar

StartChar: Thorn
Encoding: 222 222 399
Width: 2048
VWidth: 1850
Flags: HM
LayerCount: 2
Back
SplineSet
216.911132812 0 m 1
 126.53125 0 l 1
 126.53125 1540.06738281 l 1
 216.911132812 1540.06738281 l 1
 216.911132812 1123.41699219 l 1
 513.35546875 1123.41699219 l 2
 811.608398438 1123.41699219 958.926757812 942.658203125 958.926757812 739.3046875 c 0
 958.926757812 535.950195312 811.608398438 355.19140625 513.35546875 355.19140625 c 2
 216.911132812 355.19140625 l 1
 216.911132812 0 l 1
216.911132812 1042.07617188 m 1
 216.911132812 436.533203125 l 1
 513.35546875 436.533203125 l 2
 760.995117188 436.533203125 868.546875 573.91015625 868.546875 739.3046875 c 0
 868.546875 904.69921875 760.995117188 1042.07617188 513.35546875 1042.07617188 c 2
 216.911132812 1042.07617188 l 1
EndSplineSet
Colour: ffff
EndChar

StartChar: germandbls
Encoding: 223 223 400
Width: 2048
VWidth: 1850
Flags: HM
LayerCount: 2
Back
SplineSet
494.375976562 3.615234375 m 1
 494.375976562 84.95703125 l 1
 796.243164062 84.95703125 888.430664062 104.83984375 888.430664062 234.083007812 c 0
 888.430664062 337.115234375 822.454101562 400.380859375 742.015625 464.55078125 c 0
 671.51953125 521.490234375 588.37109375 593.793945312 588.37109375 702.249023438 c 0
 588.37109375 800.762695312 629.041015625 860.413085938 674.231445312 912.833007812 c 0
 716.709960938 961.637695312 751.958007812 1008.63574219 751.958007812 1116.1875 c 0
 751.958007812 1276.15917969 626.330078125 1394.55566406 484.434570312 1394.55566406 c 0
 342.538085938 1394.55566406 216.911132812 1276.15917969 216.911132812 1116.1875 c 2
 216.911132812 0 l 1
 126.53125 0 l 1
 126.53125 1116.1875 l 2
 126.53125 1312.31054688 282.887695312 1475.89746094 484.434570312 1475.89746094 c 0
 685.98046875 1475.89746094 842.336914062 1312.31054688 842.336914062 1116.1875 c 0
 842.336914062 988.751953125 792.62890625 916.448242188 744.727539062 862.220703125 c 0
 703.15234375 815.223632812 678.75 780.87890625 678.75 702.249023438 c 0
 678.75 635.368164062 731.169921875 582.948242188 801.666015625 526.008789062 c 0
 883.912109375 460.032226562 978.810546875 373.267578125 978.810546875 234.083007812 c 0
 978.810546875 23.4990234375 776.360351562 3.615234375 494.375976562 3.615234375 c 1
EndSplineSet
Colour: ffff
EndChar

StartChar: ae
Encoding: 230 230 407
Width: 2048
VWidth: 1850
Flags: HM
LayerCount: 2
Back
SplineSet
831.491210938 474.4921875 m 1
 845.048828125 250.3515625 961.637695312 85.8603515625 1185.77929688 85.8603515625 c 0
 1333.09765625 85.8603515625 1428.90039062 153.645507812 1484.93554688 261.197265625 c 1
 1566.27734375 226.852539062 l 1
 1497.58886719 95.802734375 1369.25 4.5185546875 1185.77929688 4.5185546875 c 0
 988.751953125 4.5185546875 861.31640625 105.744140625 795.33984375 247.639648438 c 1
 751.053710938 96.7060546875 565.775390625 5.4228515625 395.862304688 5.4228515625 c 0
 235.890625 5.4228515625 90.3798828125 85.8603515625 90.3798828125 272.946289062 c 0
 90.3798828125 491.665039062 338.01953125 595.600585938 585.659179688 595.600585938 c 0
 631.752929688 595.600585938 689.595703125 592.889648438 740.208007812 585.659179688 c 1
 740.208007812 732.977539062 l 2
 740.208007812 872.162109375 613.676757812 944.465820312 471.78125 944.465820312 c 0
 330.7890625 944.465820312 204.2578125 872.162109375 204.2578125 732.977539062 c 1
 113.877929688 732.977539062 l 1
 113.877929688 930.004882812 300.059570312 1025.80761719 471.78125 1025.80761719 c 0
 615.484375 1025.80761719 769.129882812 958.926757812 816.126953125 822.454101562 c 1
 886.623046875 942.658203125 1007.73144531 1025.80761719 1185.77929688 1025.80761719 c 0
 1494.87695312 1025.80761719 1631.35058594 776.360351562 1631.35058594 515.163085938 c 2
 1631.35058594 474.4921875 l 1
 1364.73046875 474.4921875 1098.11132812 474.4921875 831.491210938 474.4921875 c 1
831.491210938 555.833984375 m 1
 1540.06738281 555.833984375 l 1
 1526.50976562 779.975585938 1409.92089844 944.465820312 1185.77929688 944.465820312 c 0
 961.637695312 944.465820312 845.048828125 779.975585938 831.491210938 555.833984375 c 1
582.043945312 526.913085938 m 0
 394.958984375 526.913085938 169.913085938 460.935546875 169.913085938 282.887695312 c 0
 169.913085938 139.184570312 294.637695312 84.95703125 414.841796875 84.95703125 c 0
 567.583007812 84.95703125 740.208007812 180.758789062 740.208007812 317.232421875 c 2
 740.208007812 515.163085938 l 1
 691.403320312 522.393554688 629.9453125 526.913085938 582.043945312 526.913085938 c 0
EndSplineSet
Colour: ffff
EndChar

StartChar: oslash
Encoding: 248 248 424
Width: 2048
VWidth: 1850
Flags: HM
LayerCount: 2
Back
SplineSet
869.451171875 1030.33007812 m 1
 981.521484375 1030.33007812 l 1
 202.450195312 -0.00390625 l 1
 90.3798828125 -0.00390625 l 1
 869.451171875 1030.33007812 l 1
EndSplineSet
Refer: 5 111 N 1 0 0 1 9.03795 0 2
Colour: ffff
EndChar

StartChar: thorn
Encoding: 254 254 430
Width: 2048
VWidth: 1850
Flags: HM
LayerCount: 2
Back
SplineSet
126.53125 1480.41699219 m 1
 216.911132812 1480.41699219 l 1
 216.911132812 -370.555664062 l 1
 126.53125 -370.555664062 l 1
 126.53125 1480.41699219 l 1
EndSplineSet
Refer: 5 111 N 1 0 0 1 36.1518 0 2
Colour: ffff
EndChar

StartChar: OE
Encoding: 338 338 433
Width: 2048
VWidth: 1850
Flags: HM
LayerCount: 2
Back
SplineSet
807.993164062 1394.55566406 m 1
 726.651367188 1394.55566406 l 2
 365.1328125 1394.55566406 180.758789062 1099.01464844 180.758789062 740.208007812 c 0
 180.758789062 381.401367188 365.1328125 85.8603515625 726.651367188 85.8603515625 c 2
 807.993164062 85.8603515625 l 1
 807.993164062 1394.55566406 l 1
1647.61914062 85.8603515625 m 1
 1647.61914062 4.5185546875 l 1
 726.651367188 4.5185546875 l 2
 292.830078125 4.5185546875 90.3798828125 363.326171875 90.3798828125 740.208007812 c 0
 90.3798828125 1117.09082031 292.830078125 1475.89746094 726.651367188 1475.89746094 c 2
 1647.61914062 1475.89746094 l 1
 1647.61914062 1394.55566406 l 1
 898.372070312 1394.55566406 l 1
 898.372070312 780.87890625 l 1
 1647.61914062 780.87890625 l 1
 1647.61914062 699.537109375 l 1
 898.372070312 699.537109375 l 1
 898.372070312 85.8603515625 l 1
 1647.61914062 85.8603515625 l 1
EndSplineSet
Colour: ffff
EndChar

StartChar: uniE00F
Encoding: 57359 57359 444
Width: 1086
VWidth: 1446
Flags: HW
LayerCount: 2
Fore
SplineSet
338 957 m 1
 370 935 411 918 466 918 c 0
 547 918 594 951 594 1002 c 0
 594 1023 587 1042 534 1057 c 0
 496.858348082 1067.51178828 386 1099 386 1216 c 0
 386 1341 488 1436 600 1436 c 0
 643 1436 687 1418 723 1392 c 1
 665 1312 l 1
 647 1325 628 1336 600 1336 c 0
 544 1336 486 1285 486 1216 c 0
 486 1179 515 1165 562 1151 c 0
 619 1133 694 1104 694 1002 c 0
 694 868 565 818 466 818 c 0
 398 818 333 839 281 874 c 1
 338 957 l 1
EndSplineSet
Colour: ffff00
EndChar
